<?xml version="1.0" standalone="no"?>
<!DOCTYPE svg PUBLIC "-//W3C//DTD SVG 20010904//EN"
 "http://www.w3.org/TR/2001/REC-SVG-20010904/DTD/svg10.dtd">
<svg version="1.0" xmlns="http://www.w3.org/2000/svg"
 width="700.000000pt" height="700.000000pt" viewBox="0 0 700.000000 700.000000"
 preserveAspectRatio="xMidYMid meet">
<metadata>
Created by potrace 1.11, written by Peter Selinger 2001-2013
</metadata>
<g transform="translate(0.000000,700.000000) scale(0.100000,-0.100000)"
fill="#000000" stroke="none">
<path d="M2509 5846 c-2 -2 -17 -6 -34 -9 -53 -9 -99 -29 -147 -64 -91 -65
-114 -101 -234 -359 -18 -39 -62 -133 -98 -209 -36 -75 -66 -139 -66 -140 0
-2 -29 -63 -64 -137 -35 -73 -95 -200 -134 -283 -38 -82 -88 -188 -110 -235
-22 -47 -65 -139 -96 -205 -32 -66 -60 -138 -63 -160 -6 -48 11 -119 39 -158
74 -104 250 -114 336 -18 13 14 45 71 72 126 70 148 128 271 165 350 18 39 51
109 74 158 22 48 58 124 80 170 21 45 74 159 119 252 168 357 189 401 208 443
l20 43 61 -128 c34 -70 83 -173 109 -228 26 -55 69 -147 97 -205 27 -58 66
-141 87 -185 21 -44 59 -125 85 -180 26 -55 64 -136 85 -180 21 -44 65 -136
97 -205 52 -108 58 -129 49 -150 -6 -14 -44 -95 -84 -180 -41 -85 -87 -182
-102 -215 -15 -33 -67 -143 -115 -245 -48 -102 -104 -221 -125 -265 -21 -44
-64 -134 -95 -200 -139 -289 -137 -286 -141 -361 -3 -65 -1 -75 29 -124 24
-39 45 -60 82 -79 l50 -26 660 0 660 0 15 -25 c9 -14 33 -63 55 -110 21 -47
76 -163 122 -258 46 -96 83 -175 83 -177 0 -3 121 -258 177 -372 59 -122 109
-157 218 -158 73 0 105 13 150 59 44 46 59 80 61 143 3 68 4 64 -138 363 -28
58 -68 143 -90 190 -22 47 -69 145 -104 219 -35 73 -64 135 -64 136 0 2 -41
87 -90 190 -49 103 -90 188 -90 190 0 1 -34 74 -76 161 -42 88 -89 186 -104
219 -15 33 -56 119 -89 190 -34 72 -81 170 -104 219 -23 49 -62 131 -87 183
l-45 95 -117 -249 c-65 -136 -118 -255 -118 -264 0 -9 23 -62 50 -118 28 -56
50 -103 50 -105 0 -2 29 -65 65 -140 36 -75 65 -138 65 -141 0 -3 -162 -5
-360 -5 -198 0 -360 2 -360 4 0 5 60 135 130 281 34 72 97 204 140 295 43 91
104 219 135 285 31 66 70 147 85 180 15 33 56 119 90 190 34 72 78 164 97 205
19 41 55 118 80 170 79 164 144 303 173 365 15 33 57 121 92 195 36 74 109
229 163 344 l99 209 15 -34 c9 -19 46 -99 84 -179 38 -80 86 -183 107 -230 21
-47 62 -131 89 -188 28 -56 51 -104 51 -107 0 -2 30 -66 66 -142 36 -76 118
-248 181 -382 62 -134 123 -257 134 -272 10 -15 42 -39 71 -53 118 -59 246
-14 298 106 33 76 24 127 -45 273 -32 66 -73 154 -92 195 -89 188 -117 249
-140 300 -14 30 -59 124 -99 209 -41 84 -74 155 -74 156 0 2 -29 63 -64 137
-35 73 -78 165 -96 203 -100 213 -124 257 -166 304 -51 57 -144 112 -218 130
-55 14 -152 13 -206 -2 -109 -28 -242 -134 -287 -227 -12 -25 -45 -94 -73
-155 -29 -60 -76 -159 -105 -220 -54 -114 -104 -221 -148 -315 -14 -30 -59
-126 -101 -213 -42 -87 -76 -161 -76 -165 0 -4 -7 -18 -16 -31 l-16 -23 -21
44 c-11 23 -21 45 -22 48 -1 3 -22 48 -47 100 -25 52 -69 145 -98 205 -29 61
-72 153 -97 205 -25 52 -60 127 -78 165 -18 39 -59 124 -90 190 -31 66 -66
139 -77 162 -64 136 -237 243 -391 243 -35 0 -66 -2 -68 -4z"/>
<path d="M2448 2260 c-9 -19 -42 -89 -73 -155 -32 -66 -98 -205 -147 -310 -50
-104 -109 -228 -131 -275 -53 -112 -59 -176 -24 -246 28 -54 48 -74 104 -102
80 -39 186 -20 247 44 15 16 40 56 56 89 72 152 145 306 175 370 18 39 63 133
99 209 37 76 64 141 61 144 -2 3 -44 6 -92 7 -95 2 -141 16 -185 57 -38 36
-60 85 -68 148 l-6 55 -16 -35z"/>
</g>
</svg>
