<?xml version="1.0" encoding="UTF-8" standalone="no"?><!DOCTYPE svg PUBLIC "-//W3C//DTD SVG 1.1//EN" "http://www.w3.org/Graphics/SVG/1.1/DTD/svg11.dtd"><svg width="100%" height="100%" viewBox="0 0 512 512" version="1.1" xmlns="http://www.w3.org/2000/svg" xmlns:xlink="http://www.w3.org/1999/xlink" xml:space="preserve" xmlns:serif="http://www.serif.com/" style="fill-rule:evenodd;clip-rule:evenodd;stroke-linecap:round;stroke-linejoin:round;stroke-miterlimit:1.5;"><rect id="Thief-Icon-Mono" serif:id="Thief Icon Mono" x="0" y="0" width="512" height="512" style="fill:none;"/><path d="M256,37.644c126.896,0.001 184.05,108.947 184.05,183.688c0,94.466 -74.581,264.757 -184.05,264.757m0,-448.445c-126.896,0.001 -184.05,108.947 -184.05,183.688c0,94.466 74.581,264.757 184.05,264.757" style="fill:#fff;stroke:#000;stroke-width:22px;"/><rect x="255.426" y="226.79" width="1.149" height="55.939"/><path d="M177.056,197.88c-29.942,0 -66.695,12.165 -66.695,40.587c0,45.347 70.939,60.073 95.334,60.073c11.944,0 36.123,-1.616 50.305,-15.798l0,-29.707l0,-26.243c-14.013,-14.013 -42.659,-28.912 -78.944,-28.912Zm11.518,32.708c18.134,0 32.856,7.896 32.856,17.622c0,9.725 -14.722,17.622 -32.856,17.622c-18.133,0 -32.855,-7.897 -32.855,-17.622c0,-9.726 14.722,-17.622 32.855,-17.622Z"/><path d="M334.944,197.88c29.942,0 66.695,12.165 66.695,40.587c0,45.347 -70.939,60.073 -95.334,60.073c-11.944,0 -36.123,-1.616 -50.305,-15.798l0,-29.707l0,-26.243c14.013,-14.013 42.659,-28.912 78.944,-28.912Zm-11.518,32.708c-18.134,0 -32.856,7.896 -32.856,17.622c0,9.725 14.722,17.622 32.856,17.622c18.133,0 32.855,-7.897 32.855,-17.622c0,-9.726 -14.722,-17.622 -32.855,-17.622Z"/></svg>