<?xml version="1.0" encoding="UTF-8" standalone="no"?><!DOCTYPE svg PUBLIC "-//W3C//DTD SVG 1.1//EN" "http://www.w3.org/Graphics/SVG/1.1/DTD/svg11.dtd"><svg width="100%" height="100%" viewBox="0 0 185 185" version="1.1" xmlns="http://www.w3.org/2000/svg" xmlns:xlink="http://www.w3.org/1999/xlink" xml:space="preserve" xmlns:serif="http://www.serif.com/" style="fill-rule:evenodd;clip-rule:evenodd;stroke-linejoin:round;stroke-miterlimit:2;"><rect id="Affinity" x="0" y="0" width="184.32" height="184.32" style="fill:none;"/><path d="M172.8,27.648c-0,-8.901 -7.227,-16.128 -16.128,-16.128l-129.024,-0c-8.901,-0 -16.128,7.227 -16.128,16.128l-0,129.023c-0,8.901 7.227,16.128 16.128,16.128l129.024,-0c8.901,-0 16.128,-7.227 16.128,-16.128l-0,-129.023Z" style="fill:none;"/><clipPath id="_clip1"><path d="M172.8,27.648c-0,-8.901 -7.227,-16.128 -16.128,-16.128l-129.024,-0c-8.901,-0 -16.128,7.227 -16.128,16.128l-0,129.023c-0,8.901 7.227,16.128 16.128,16.128l129.024,-0c8.901,-0 16.128,-7.227 16.128,-16.128l-0,-129.023Z"/></clipPath><g clip-path="url(#_clip1)"><g><clipPath id="_clip2"><path d="M172.8,16.358c0,-2.67 -2.168,-4.838 -4.838,-4.838l-151.604,-0c-2.67,-0 -4.838,2.168 -4.838,4.838l0,151.604c0,2.67 2.168,4.838 4.838,4.838l151.604,0c2.67,0 4.838,-2.168 4.838,-4.838l0,-151.604Z"/></clipPath><g clip-path="url(#_clip2)"><path d="M11.52,61.053c0,-11.898 4.726,-23.308 13.139,-31.721c8.413,-8.413 19.824,-13.14 31.721,-13.14l15.345,0l-60.205,104.288l0,-59.427Z"/><path d="M172.8,172.799l-81.874,-0l-31.841,-55.152l113.715,0l-0,55.152Zm-89.131,-0l-72.149,-0l0,-39.764l70.157,-121.516l27.417,0l-59.27,102.66l33.845,58.62Zm17.749,-61.441l-27.721,0c-3.094,0 -5.954,-1.624 -7.501,-4.304c-1.545,-2.677 -1.545,-5.985 -0,-8.661c6.158,-10.666 13.868,-24.02 13.868,-24.02l21.354,36.985Zm71.382,0l-64.121,0l-24.986,-43.271l32.659,-56.568l56.448,0l-0,99.839Z"/></g></g></g></svg>