<?xml version="1.0" encoding="UTF-8" standalone="no"?><!DOCTYPE svg PUBLIC "-//W3C//DTD SVG 1.1//EN" "http://www.w3.org/Graphics/SVG/1.1/DTD/svg11.dtd"><svg width="100%" height="100%" viewBox="0 0 185 185" version="1.1" xmlns="http://www.w3.org/2000/svg" xmlns:xlink="http://www.w3.org/1999/xlink" xml:space="preserve" xmlns:serif="http://www.serif.com/" style="fill-rule:evenodd;clip-rule:evenodd;"><rect id="Arduino" x="0" y="0" width="184.32" height="184.32" style="fill:none;"/><clipPath id="_clip1"><rect x="0" y="0" width="184.32" height="184.32"/></clipPath><g clip-path="url(#_clip1)"><g><path id="path6" d="M51.46,61.332c-17.566,0 -32.02,13.904 -32.02,30.8c0,16.897 14.454,30.8 32.02,30.8c41.8,2.2 37.4,-61.6 81.4,-61.6c17.566,0 32.02,13.904 32.02,30.8c-0,16.897 -14.454,30.8 -32.02,30.8c-41.8,2.2 -37.4,-61.6 -81.4,-61.6" style="fill:none;fill-rule:nonzero;stroke:#000;stroke-width:13.2px;"/><g id="text10"><path id="path3075" d="M129.355,99.761l0,-7.212l-7.158,-0l0,-3.014l7.158,0l0,-7.158l3.05,0l-0,7.158l7.158,0l-0,3.014l-7.158,-0l-0,7.212l-3.05,-0Z" style="fill-rule:nonzero;stroke:#000;stroke-width:4.4px;"/></g><g id="text10-7"><rect id="path3078" x="43.341" y="89.843" width="18.33" height="2.451" style="fill-rule:nonzero;stroke:#000;stroke-width:6.21px;"/></g></g></g></svg>