<?xml version="1.0" encoding="UTF-8" standalone="no"?><!DOCTYPE svg PUBLIC "-//W3C//DTD SVG 1.1//EN" "http://www.w3.org/Graphics/SVG/1.1/DTD/svg11.dtd"><svg width="100%" height="100%" viewBox="0 0 185 185" version="1.1" xmlns="http://www.w3.org/2000/svg" xmlns:xlink="http://www.w3.org/1999/xlink" xml:space="preserve" xmlns:serif="http://www.serif.com/" style="fill-rule:evenodd;clip-rule:evenodd;stroke-linejoin:round;stroke-miterlimit:2;"><rect id="Bash" x="0" y="0" width="184.32" height="184.32" style="fill:none;"/><path d="M152.962,44.429l-50.932,-30.233c-6.023,-3.568 -13.539,-3.568 -19.562,0l-50.933,30.233c-6.153,3.67 -9.925,10.334 -9.905,17.499l-0,60.464c-0.039,7.147 3.697,13.807 9.816,17.499l50.933,30.233c6.023,3.568 13.539,3.568 19.562,-0l50.932,-30.233c6.119,-3.692 9.856,-10.352 9.817,-17.499l-0,-60.464c0.057,-7.129 -3.643,-13.785 -9.728,-17.499Zm-39.444,94.413l0,4.339c-0.007,0.542 -0.288,1.045 -0.747,1.334l-2.579,1.476c-0.409,0.214 -0.746,0 -0.746,-0.569l-0,-4.268c-1.823,0.894 -3.909,1.097 -5.869,0.569c-0.313,-0.209 -0.433,-0.615 -0.285,-0.96l0.925,-3.93c0.079,-0.332 0.259,-0.63 0.516,-0.854c0.074,-0.071 0.157,-0.131 0.249,-0.178c0.13,-0.056 0.278,-0.056 0.409,0c1.798,0.481 3.714,0.239 5.335,-0.676c2.344,-1.145 3.877,-3.493 3.984,-6.099c-0,-2.206 -1.21,-3.13 -4.126,-3.148c-3.699,-0 -7.114,-0.711 -7.203,-6.171c0.086,-4.718 2.28,-9.158 5.976,-12.093l-0,-4.393c-0.003,-0.549 0.28,-1.061 0.747,-1.351l2.489,-1.583c0.409,-0.213 0.747,0 0.747,0.587l0,4.393c1.525,-0.695 3.227,-0.9 4.873,-0.587c0.353,0.201 0.493,0.646 0.32,1.013l-0.871,3.895c-0.074,0.297 -0.228,0.567 -0.445,0.782c-0.072,0.078 -0.156,0.144 -0.249,0.196c-0.121,0.041 -0.252,0.041 -0.373,0c-1.605,-0.352 -3.285,-0.078 -4.695,0.765c-2.094,0.906 -3.483,2.948 -3.557,5.228c-0,1.992 1.049,2.597 4.57,2.668c4.713,-0 6.74,2.134 6.794,6.864c-0.09,4.951 -2.355,9.618 -6.189,12.751Zm26.676,-7.309c0.062,0.373 -0.089,0.751 -0.392,0.978l-12.875,7.825c-0.068,0.057 -0.153,0.089 -0.242,0.089c-0.205,-0 -0.373,-0.169 -0.373,-0.374c-0,-0.029 0.003,-0.059 0.01,-0.088l0,-3.326c0.017,-0.364 0.248,-0.685 0.587,-0.818l12.68,-7.594c0.067,-0.057 0.153,-0.089 0.242,-0.089c0.205,0 0.373,0.169 0.373,0.374c0,0.03 -0.003,0.06 -0.01,0.089l-0,2.934Zm8.891,-74.353l-48.193,29.769c-6.011,3.557 -10.439,7.452 -10.439,14.69l-0,59.362c-0,4.339 1.778,7.113 4.446,7.967c-0.88,0.165 -1.773,0.254 -2.668,0.266c-2.83,-0.006 -5.607,-0.774 -8.038,-2.223l-50.933,-30.232c-5.024,-3.042 -8.094,-8.513 -8.074,-14.387l0,-60.464c-0.026,-5.88 3.045,-11.359 8.074,-14.405l50.933,-30.232c4.928,-2.919 11.077,-2.919 16.005,-0l50.932,30.232c4.195,2.538 7.062,6.805 7.825,11.648c-1.654,-3.592 -5.459,-4.588 -9.887,-1.991l0.017,-0Z" style="fill-rule:nonzero;"/></svg>