<?xml version="1.0" encoding="UTF-8" standalone="no"?><!DOCTYPE svg PUBLIC "-//W3C//DTD SVG 1.1//EN" "http://www.w3.org/Graphics/SVG/1.1/DTD/svg11.dtd"><svg width="100%" height="100%" viewBox="0 0 185 185" version="1.1" xmlns="http://www.w3.org/2000/svg" xmlns:xlink="http://www.w3.org/1999/xlink" xml:space="preserve" xmlns:serif="http://www.serif.com/" style="fill-rule:evenodd;clip-rule:evenodd;stroke-linecap:round;stroke-linejoin:round;stroke-miterlimit:1.5;"><rect id="Blender" x="0" y="0" width="184.32" height="184.32" style="fill:none;"/><g><path d="M116.775,52.261c30.921,0 56.025,22.878 56.025,51.056c0,28.178 -25.104,51.055 -56.025,51.055c-30.921,0 -56.025,-22.877 -56.025,-51.055c0,-28.178 25.104,-51.056 56.025,-51.056Zm-0.239,15.643c18.882,0 34.211,13.961 34.211,31.156c0,17.196 -15.329,31.157 -34.211,31.157c-18.882,-0 -34.211,-13.961 -34.211,-31.157c-0,-17.195 15.329,-31.156 34.211,-31.156Zm0.971,10.445c12.045,0 21.823,8.849 21.823,19.749c0,10.9 -9.778,19.749 -21.823,19.749c-12.044,-0 -21.823,-8.849 -21.823,-19.749c0,-10.9 9.779,-19.749 21.823,-19.749Z"/><path d="M95.684,29.948l55.063,43.588" style="fill:none;stroke:#000;stroke-width:17.04px;"/><path d="M42.674,60.019l64.542,0.648" style="fill:none;stroke:#000;stroke-width:16.19px;"/><path d="M21.6,122.096l60.725,-48.56" style="fill:none;stroke:#000;stroke-width:19.6px;"/></g></svg>