<?xml version="1.0" encoding="UTF-8" standalone="no"?><!DOCTYPE svg PUBLIC "-//W3C//DTD SVG 1.1//EN" "http://www.w3.org/Graphics/SVG/1.1/DTD/svg11.dtd"><svg width="100%" height="100%" viewBox="0 0 185 185" version="1.1" xmlns="http://www.w3.org/2000/svg" xmlns:xlink="http://www.w3.org/1999/xlink" xml:space="preserve" xmlns:serif="http://www.serif.com/" style="fill-rule:evenodd;clip-rule:evenodd;stroke-linejoin:round;stroke-miterlimit:2;"><rect id="C" x="0" y="0" width="184.32" height="184.32" style="fill:none;"/><g><path d="M83.16,16.716c5.569,-3.215 12.431,-3.215 18,0c13.397,7.735 38.439,22.193 51.836,29.928c5.57,3.215 9,9.158 9,15.588l0,59.856c0,6.43 -3.43,12.373 -9,15.588c-13.397,7.735 -38.439,22.193 -51.836,29.928c-5.569,3.215 -12.431,3.215 -18,-0c-13.397,-7.735 -38.439,-22.193 -51.836,-29.928c-5.57,-3.215 -9,-9.158 -9,-15.588l-0,-59.856c-0,-6.43 3.43,-12.373 9,-15.588c13.397,-7.735 38.439,-22.193 51.836,-29.928Zm40.074,87.518c-0.239,5.195 -1.64,9.784 -4.204,13.766c-2.563,3.982 -6.161,7.066 -10.792,9.254c-4.631,2.187 -9.921,3.281 -15.868,3.281c-9.809,0 -17.534,-3.196 -23.174,-9.587c-5.639,-6.392 -8.459,-15.415 -8.459,-27.07l-0,-3.692c-0,-7.314 1.273,-13.714 3.819,-19.2c2.547,-5.486 6.213,-9.724 10.998,-12.715c4.785,-2.991 10.322,-4.486 16.611,-4.486c9.058,-0 16.338,2.384 21.841,7.152c5.503,4.768 8.63,11.339 9.382,19.713l-17.944,-0c-0.137,-4.546 -1.282,-7.81 -3.435,-9.792c-2.153,-1.983 -5.435,-2.974 -9.844,-2.974c-4.477,-0 -7.759,1.675 -9.844,5.024c-2.085,3.35 -3.178,8.699 -3.281,16.048l0,5.28c0,7.964 1,13.655 2.999,17.073c2,3.418 5.444,5.127 10.331,5.127c4.136,0 7.298,-0.974 9.485,-2.922c2.188,-1.948 3.35,-5.042 3.486,-9.28l17.893,-0Z"/></g></svg>