<?xml version="1.0" encoding="UTF-8" standalone="no"?><!DOCTYPE svg PUBLIC "-//W3C//DTD SVG 1.1//EN" "http://www.w3.org/Graphics/SVG/1.1/DTD/svg11.dtd"><svg width="100%" height="100%" viewBox="0 0 185 185" version="1.1" xmlns="http://www.w3.org/2000/svg" xmlns:xlink="http://www.w3.org/1999/xlink" xml:space="preserve" xmlns:serif="http://www.serif.com/" style="fill-rule:evenodd;clip-rule:evenodd;stroke-linejoin:round;stroke-miterlimit:2;"><rect id="CPP" x="0" y="0" width="184.32" height="184.32" style="fill:none;"/><g><path d="M83.16,16.716c5.569,-3.215 12.431,-3.215 18,0c13.397,7.735 38.439,22.193 51.836,29.928c5.57,3.215 9,9.158 9,15.588l0,59.856c0,6.43 -3.43,12.373 -9,15.588c-13.397,7.735 -38.439,22.193 -51.836,29.928c-5.569,3.215 -12.431,3.215 -18,-0c-13.397,-7.735 -38.439,-22.193 -51.836,-29.928c-5.57,-3.215 -9,-9.158 -9,-15.588l-0,-59.856c-0,-6.43 3.43,-12.373 9,-15.588c13.397,-7.735 38.439,-22.193 51.836,-29.928Zm-6.445,82.803c-0.146,3.167 -1,5.964 -2.563,8.391c-1.562,2.427 -3.755,4.307 -6.578,5.641c-2.823,1.333 -6.047,2 -9.672,2c-5.979,-0 -10.687,-1.948 -14.125,-5.844c-3.437,-3.896 -5.156,-9.396 -5.156,-16.5l0,-2.25c0,-4.458 0.776,-8.36 2.328,-11.703c1.552,-3.344 3.787,-5.927 6.703,-7.75c2.917,-1.823 6.292,-2.735 10.125,-2.735c5.521,0 9.959,1.453 13.313,4.36c3.354,2.906 5.26,6.911 5.719,12.015l-10.938,0c-0.083,-2.77 -0.781,-4.76 -2.094,-5.968c-1.312,-1.209 -3.312,-1.813 -6,-1.813c-2.729,0 -4.729,1.021 -6,3.063c-1.27,2.041 -1.937,5.302 -2,9.781l0,3.219c0,4.854 0.61,8.323 1.829,10.406c1.218,2.083 3.317,3.125 6.296,3.125c2.521,-0 4.448,-0.594 5.782,-1.781c1.333,-1.188 2.041,-3.073 2.125,-5.657l10.906,0Zm23.687,-10.406l10.657,0l-0,9.031l-10.657,0l0,12.219l-9.843,0l-0,-12.219l-10.688,0l0,-9.031l10.688,0l-0,-11.875l9.843,0l0,11.875Zm34.188,0l10.656,0l0,9.031l-10.656,0l-0,12.219l-9.844,0l0,-12.219l-10.687,0l-0,-9.031l10.687,0l0,-11.875l9.844,0l-0,11.875Z"/></g></svg>