<?xml version="1.0" encoding="UTF-8" standalone="no"?><!DOCTYPE svg PUBLIC "-//W3C//DTD SVG 1.1//EN" "http://www.w3.org/Graphics/SVG/1.1/DTD/svg11.dtd"><svg width="100%" height="100%" viewBox="0 0 185 185" version="1.1" xmlns="http://www.w3.org/2000/svg" xmlns:xlink="http://www.w3.org/1999/xlink" xml:space="preserve" xmlns:serif="http://www.serif.com/" style="fill-rule:evenodd;clip-rule:evenodd;stroke-linejoin:round;stroke-miterlimit:2;"><rect id="Creative-Cloud" serif:id="Creative Cloud" x="0" y="0" width="184.32" height="184.32" style="fill:none;"/><path d="M172.8,89.508l-0,5.309c-0.05,0.289 -0.114,0.571 -0.147,0.858c-0.275,2.31 -0.453,4.634 -0.833,6.926c-1.239,7.451 -3.919,14.376 -7.902,20.78c-6.047,9.722 -14.223,17.135 -24.497,22.198c-5.93,2.936 -12.323,4.822 -18.897,5.576c-1.46,0.169 -2.919,0.32 -4.379,0.481l-56.659,-0c-0.286,-0.053 -0.57,-0.138 -0.858,-0.155c-5.713,-0.36 -11.21,-1.662 -16.449,-3.955c-11.406,-4.991 -19.911,-13.08 -25.478,-24.214c-2.46,-4.912 -4.052,-10.211 -4.706,-15.665c-0.16,-1.326 -0.317,-2.651 -0.475,-3.976l0,-5.151c0.054,-0.286 0.138,-0.571 0.155,-0.858c0.296,-4.95 1.312,-9.756 3.1,-14.376c4.812,-12.43 13.2,-21.648 25.12,-27.615c6.184,-3.097 12.776,-4.724 19.671,-5.085c3.375,-0.176 6.748,0.013 10.104,0.463c0.304,0.041 0.742,-0.094 0.953,-0.311c4.825,-4.928 10.319,-8.932 16.514,-11.966c6.009,-2.943 12.333,-4.84 18.99,-5.599c1.566,-0.18 3.137,-0.327 4.706,-0.489l4.83,0c0.316,0.049 0.633,0.105 0.949,0.142c2.393,0.279 4.8,0.454 7.171,0.851c7.396,1.241 14.281,3.896 20.653,7.84c9.77,6.047 17.215,14.234 22.302,24.54c2.941,5.932 4.83,12.331 5.581,18.91c0.173,1.514 0.32,3.029 0.481,4.541m-90.177,-34.357c0.096,0.127 0.12,0.187 0.162,0.207c3.317,1.635 6.487,3.552 9.476,5.73c0.188,0.137 0.656,0.08 0.884,-0.064c8.214,-5.204 17.118,-7 26.683,-5.304c9.373,1.662 17.001,6.345 22.828,13.825c6.598,8.465 9.114,18.037 7.293,28.687c-1.222,7.137 -4.081,13.54 -8.94,18.904c-8.867,9.78 -19.971,13.824 -33.042,12.112c-8.047,-1.054 -14.993,-4.525 -20.742,-10.335c-7.379,-7.454 -14.806,-14.858 -22.206,-22.292c-0.987,-0.99 -2.085,-1.786 -3.505,-1.96c-2.481,-0.304 -4.732,0.934 -5.803,3.163c-0.956,1.99 -0.833,4.233 1.241,6.272c8.25,8.099 16.427,16.271 24.667,24.378c1.41,1.394 2.923,2.682 4.525,3.851c6.02,4.371 12.807,6.788 20.157,7.761c5.769,0.762 11.493,0.599 17.173,-0.678c10.834,-2.433 19.808,-7.963 26.877,-16.496c5.836,-7.051 9.366,-15.154 10.597,-24.25c0.713,-5.188 0.564,-10.457 -0.441,-15.596c-1.639,-8.403 -5.194,-15.921 -10.89,-22.32c-10.868,-12.203 -24.54,-17.651 -40.81,-16.435c-6.259,0.467 -12.179,2.306 -17.75,5.222c-3.006,1.562 -5.834,3.445 -8.434,5.618m-3.981,85.187c-0.224,-0.207 -0.447,-0.416 -0.669,-0.625c-3.373,-3.184 -6.765,-6.349 -10.098,-9.575c-0.645,-0.623 -1.238,-0.927 -2.152,-0.906c-3.375,0.082 -6.753,0.097 -10.08,-0.655c-16.539,-3.74 -26.143,-21.723 -20.048,-37.545c4.808,-12.477 18.118,-20.075 31.243,-17.732c5.883,1.05 11.047,3.54 15.285,7.912c5.169,5.336 10.492,10.519 15.717,15.801c1.189,1.203 2.555,1.751 4.203,1.516c2.129,-0.304 3.824,-1.318 4.594,-3.406c0.754,-2.055 0.389,-4.001 -1.167,-5.577c-5.484,-5.555 -10.837,-11.249 -16.542,-16.568c-11.066,-10.321 -24.114,-13.39 -38.545,-9.002c-19.411,5.898 -30.771,25.942 -26.336,45.72c4.042,18.021 19.802,30.669 38.244,30.685c5.149,0.005 10.299,0.002 15.448,-0c0.255,-0 0.51,-0.023 0.903,-0.043" style="fill-rule:nonzero;"/></svg>