<?xml version="1.0" encoding="UTF-8" standalone="no"?><!DOCTYPE svg PUBLIC "-//W3C//DTD SVG 1.1//EN" "http://www.w3.org/Graphics/SVG/1.1/DTD/svg11.dtd"><svg width="100%" height="100%" viewBox="0 0 185 185" version="1.1" xmlns="http://www.w3.org/2000/svg" xmlns:xlink="http://www.w3.org/1999/xlink" xml:space="preserve" xmlns:serif="http://www.serif.com/" style="fill-rule:evenodd;clip-rule:evenodd;stroke-linejoin:round;stroke-miterlimit:2;"><rect id="CS" x="0" y="0" width="184.32" height="184.32" style="fill:none;"/><g><path d="M83.16,16.716c5.569,-3.215 12.431,-3.215 18,0c13.397,7.735 38.439,22.193 51.836,29.928c5.57,3.215 9,9.158 9,15.588l0,59.856c0,6.43 -3.43,12.373 -9,15.588c-13.397,7.735 -38.439,22.193 -51.836,29.928c-5.569,3.215 -12.431,3.215 -18,-0c-13.397,-7.735 -38.439,-22.193 -51.836,-29.928c-5.57,-3.215 -9,-9.158 -9,-15.588l-0,-59.856c-0,-6.43 3.43,-12.373 9,-15.588c13.397,-7.735 38.439,-22.193 51.836,-29.928Zm9.313,84.643c-0.183,3.959 -1.25,7.455 -3.203,10.488c-1.954,3.034 -4.694,5.385 -8.223,7.051c-3.529,1.667 -7.559,2.5 -12.09,2.5c-7.474,0 -13.359,-2.435 -17.656,-7.304c-4.297,-4.87 -6.445,-11.745 -6.445,-20.625l-0,-2.813c-0,-5.573 0.97,-10.449 2.91,-14.629c1.94,-4.18 4.733,-7.409 8.379,-9.687c3.645,-2.279 7.864,-3.418 12.656,-3.418c6.901,-0 12.448,1.816 16.64,5.449c4.193,3.633 6.576,8.639 7.149,15.019l-13.672,0c-0.104,-3.463 -0.977,-5.95 -2.617,-7.46c-1.641,-1.511 -4.141,-2.266 -7.5,-2.266c-3.412,-0 -5.912,1.276 -7.5,3.828c-1.589,2.552 -2.422,6.628 -2.5,12.227l-0,4.023c-0,6.068 0.762,10.404 2.285,13.008c1.523,2.604 4.147,3.906 7.871,3.906c3.151,0 5.56,-0.742 7.227,-2.226c1.666,-1.485 2.552,-3.842 2.656,-7.071l13.633,0Zm26.093,3.242l-6.289,0l-2.617,16.016l-7.773,0l2.617,-16.016l-8.672,0l0,-7.148l9.844,-0l1.719,-10.313l-8.633,0l-0,-7.148l9.804,0l2.696,-16.25l7.734,0l-2.656,16.25l6.289,0l2.695,-16.25l7.774,0l-2.696,16.25l9.024,0l-0,7.148l-10.195,0l-1.719,10.313l8.945,-0l0,7.148l-10.117,0l-2.617,16.016l-7.774,0l2.617,-16.016Zm-5.117,-7.148l6.289,-0l1.719,-10.313l-6.289,0l-1.719,10.313Z"/></g></svg>