<?xml version="1.0" encoding="UTF-8" standalone="no"?><!DOCTYPE svg PUBLIC "-//W3C//DTD SVG 1.1//EN" "http://www.w3.org/Graphics/SVG/1.1/DTD/svg11.dtd"><svg width="100%" height="100%" viewBox="0 0 185 185" version="1.1" xmlns="http://www.w3.org/2000/svg" xmlns:xlink="http://www.w3.org/1999/xlink" xml:space="preserve" xmlns:serif="http://www.serif.com/" style="fill-rule:evenodd;clip-rule:evenodd;stroke-linejoin:round;stroke-miterlimit:2;"><rect id="Flask" x="0" y="0" width="184.32" height="184.32" style="fill:none;"/><path id="path2900" d="M59.715,148.336c-6.144,-4.833 -12.698,-9.466 -17.176,-15.99c-9.424,-11.505 -16.679,-24.826 -21.64,-38.824c-2.998,-9.102 -4.025,-18.861 -7.89,-27.612c-4.043,-6.355 0.693,-13.303 7.655,-15.323c3.099,-0.595 8.549,-3.519 1.971,-1.429c-5.898,4.327 -6.469,-3.928 -0.421,-4.451c4.127,-0.548 5.646,-3.927 4.235,-6.969c-4.43,-2.889 10.743,-6.064 3.109,-10.376c-7.954,-8.58 11.125,-10.232 6.418,-0.487c-1.127,7.494 13.331,-1.373 9.977,7.28c3.409,4.156 12.768,0.946 12.535,6.776c4.967,0.342 6.672,4.521 11.335,4.842c4.832,2.182 13.592,3.902 15.237,9.347c-4.795,3.796 -15.896,-7.84 -16.43,2.667c1.449,15.52 1.08,31.509 6.758,46.289c2.686,8.949 9.198,15.994 15.078,22.965c5.626,6.826 13.248,11.632 21.015,15.679c6.815,3.213 14.161,5.345 21.587,6.682c3.012,-2.304 8.33,-10.869 13.029,-7.257c0.223,4.058 -9.327,8.483 -0.449,8.035c5.212,-1.573 8.827,4.031 13.12,-1.024c3.954,4.684 16.437,-2.993 13.623,6.582c-3.805,2.455 -9.354,0.971 -13.165,4.348c-6.284,-3.138 -11.286,2.809 -18.242,2.057c-7.726,1.383 -15.585,1.942 -23.417,1.954c-12.849,-1.015 -25.97,-1.443 -38.194,-5.917c-6.886,-2.001 -13.606,-5.922 -19.658,-9.844Zm10.852,4.701c6.724,2.908 13.299,5.973 20.668,6.897c11.691,1.626 23.764,4.127 35.496,1.846c-5.31,-2.398 -10.799,0.934 -16.09,-1.715c-6.344,1.366 -13.153,-0.347 -19.604,-1.191c-7.335,-3.267 -15.25,-5.514 -22.119,-9.755c-8.583,-3.135 4.439,4.021 6.757,4.6c5.365,3.046 -5.901,-1.561 -7.489,-2.827c-4.494,-2.521 -5.067,-1.994 -0.445,0.566c0.931,0.545 1.851,1.116 2.826,1.579Zm-12.794,-9.041c6.515,2.413 -0.029,-4.582 -3.015,-4.176c-1.323,-2.295 -5.054,-3.745 -2.422,-4.977c-4.734,1.643 -4.959,-6.251 -7.185,-5.123c-5.008,-1.581 -1.949,-7.184 -7.915,-10.624c-0.545,-3.626 -5.928,-6.77 -7.645,-12.238c-0.758,-2.8 -6.081,-10.84 -2.811,-3.358c2.784,7.203 7.683,13.372 11.76,19.533c3.165,5.867 6.903,11.998 12.668,15.658c1.944,1.864 3.82,4.72 6.565,5.305Zm-18.771,-20.609c0.228,-0.984 1.192,2.13 0,0Zm26.574,23.502c1.443,-0.646 -2.075,-0.814 -0,-0Zm3.537,1.29c-0.367,-1.782 -1.615,0.996 -0,-0Zm4.427,1.847c2.108,-2.007 -3.248,-1.266 0,-0Zm7.588,4.229c1.281,-1.893 -4.099,-0.714 0,-0Zm-14.571,-10.158c3.274,-2.117 -4.229,-0.029 -0,0Zm3.321,1.657c-0.093,-1.12 -1.183,0.501 0,-0Zm16.6,10.36c2.668,1.684 15.582,3.691 7.496,0.691c-1.353,0.285 -14.995,-3.859 -7.496,-0.691Zm-26.353,-20.524c-0.259,-1.123 -4.142,-1.239 0,0Zm7.728,4.504c2.011,-1.403 -4.174,-1.082 0,0Zm6.5,3.986c2.886,-1.089 -4.682,-1.094 0,-0Zm-17.372,-11.914c3.131,2.401 12.628,0.307 4.795,-1.434c-3.565,-1.9 -11.6,-3.201 -6.123,1.146l1.328,0.288l-0,-0Zm21.775,13.29c1.304,-2.223 -5.47,-1.269 -0,-0Zm-6.617,-5.259c7.657,2.166 -6.439,-4.842 -1.889,-0.797l1.008,0.456l0.881,0.341l-0,0Zm13.266,7.667c7.251,0.07 -6.55,-0.999 -0,0l-0,0Zm-31.214,-19.894c-0.283,-1.35 -1.79,0.113 -0,0Zm43.48,26.775c0.193,-2.44 -2.366,1.815 0,-0Zm-31.105,-19.197c-0.439,-1.284 -2.266,-0.052 -0,0Zm-11.687,-8.425c4.163,-0.25 -5.7,-1.835 -0,-0Zm-13.845,-8.949c-0.518,-1.996 -4.53,-3.588 -0,-0Zm36.346,23.066c-0.763,-0.87 -0.359,0.19 -0,-0Zm22.623,13.883c-0.073,-1.329 -1.233,0.503 -0,-0Zm-24.625,-15.951c0.407,-1.712 -3.55,-0.518 -0,0Zm-16.854,-10.681c3.097,-0.331 -4.961,-2.094 -0,0Zm28.509,17.715c4.827,-1.912 -4.704,-0.933 0,0Zm-14.829,-10.066c5.562,0.717 -6.618,-3.783 -1.22,-0.403l1.22,0.403l-0,-0Zm19.331,11.886c5.194,-3.104 3.481,7.27 8.811,0.877c5.257,-3.839 -4.54,4.745 1.939,0.684c4.685,-3.134 11.606,1.486 15.978,2.993c3.144,-0.155 6.201,2.719 9.424,0.971c6.205,-1.672 -12.133,-2.479 -7.326,-5.444c-5.677,1.652 -9.872,-1.97 -12.666,-5.607c-6.368,-1.47 -13.731,-4.726 -16.91,-10.362c-1.295,-2.116 1.872,0.298 -1.118,-3.16c-3.838,-3.414 -5.754,-7.288 -8.33,-11.437c-3.077,-1.642 -3.436,-6.474 -3.747,-0.162c0.025,-3.984 -3.715,-6.665 -4.628,-5.55c-0.017,-3.837 4.002,-1.914 1.189,-4.752c-0.606,-3.977 -2.599,-8.12 -3.199,-12.609c-0.931,-2.165 -0.131,-6.8 -3.178,-1.901c-1.11,5.178 -0.368,-6.362 1.358,-2.557c2.266,-3.883 -0.813,-3.426 -0.939,-2.887c1.476,-3.276 0.934,-7.923 -0.385,-6.151c0.786,-3.472 1.242,-12.779 -1.178,-11.13c1.467,-3.631 2.782,-16.616 -3.585,-11.665c-2.58,0.036 -7.049,0.936 -9.161,1.987c6.623,3.65 -0.666,1.318 -3.362,0.738c-0.351,3.378 -3.021,1.917 -6.357,1.95c5.328,0.659 -2.595,5.449 -5.651,3.589c-3.97,1.897 3.426,6.633 0.079,8.097c0.412,2.208 -6.081,-0.797 -5.571,4.301c-3.854,-1.621 -0.531,6.048 1.397,3.454c6.555,1.774 4.614,5.818 4.781,9.66c-1.068,2.239 -5.272,-5.262 -0.936,-4.914c-3.421,-5.558 -3.784,-2.009 -6.627,0.572c-0.661,0.188 7.251,3.674 2.286,5.397c4.368,0.674 4.492,4.497 5.382,6.916c2.626,2.735 2.088,-3.019 5.23,0.267c-1.988,-2.928 -10.531,-8.25 -3.653,-6.543c-0.037,-2.947 -1.244,-5.323 0.863,-5.266c2.087,-3.779 -2.185,9.318 2.519,4.515c1.302,-0.568 1.624,-3.784 3.965,0.304c3.399,3.344 1.227,5.767 -3.568,2.705c0.858,2.911 6.415,3.951 5.371,8.502c1.107,4.003 2.656,2.528 4.006,2.297c1.059,3.889 1.66,1.029 1.71,-0.822c4.849,1.038 3.713,3.905 5.231,5.907c3.341,1.509 -4.783,-10.223 0.954,-3.527c6.035,5.449 2.263,7.724 -3.153,6.851c3.428,-0.277 4.533,4.634 8.821,4.462c3.91,1.86 6.558,9.004 -0.182,6.03c-2.338,-2.108 -10.61,-4.708 -3.854,-0.699c6.241,2.89 11.197,4.619 17.216,8.246c4.307,3.075 6.168,6.597 7.801,7.295c-3.62,1.729 -10.91,-1.381 -5.497,-2.334c-3.376,-0.615 -7.174,-2.323 -3.94,1.884c2.75,2.296 9.743,2.053 10.996,2.313c-1.062,2.341 -2.886,2.527 0.044,2.709c-3.269,1.741 1.048,2.011 1.35,3.006l0,0Zm-6.683,-18.873c-1.988,-2.08 -2.502,-5.975 -0.353,-2.585c1.102,0.442 3.531,6.365 0.353,2.585l0,-0Zm21.765,13.826c1.241,-0.081 0.036,0.942 0,-0Zm-24.905,-18.925c-0.076,-3.144 0.72,2.425 0,0Zm-2.163,-2.91c-2.501,-4.833 3.153,1.368 0,-0Zm-26.214,-18.093c1.469,-0.392 0.723,2.513 0,-0Zm20.863,11.308c0.903,-3.389 1.061,2.844 0,0Zm-14.739,-10.249c-1.039,-1.87 2.173,1.754 0,0Zm12.649,4.055c-2.369,-5.308 1.678,-2.899 0.525,0.87l-0.525,-0.87Zm-21.813,-14.547c-1.06,-1.742 -2.812,-6.852 -2.248,-8.412c0.51,2.54 5.403,10.934 2.4,3.477c-3.319,-6.252 3.967,2.029 4.716,3.588c0.349,1.551 -2.047,-0.424 -0.424,3.213c-2.961,-4.141 -1.748,2.287 -4.444,-1.866Zm-6.742,-4.646c0.277,-4.049 1.543,2.777 -0,0Zm3.032,1.044c1.447,-3.056 2.454,4.261 0,0Zm-7.294,-5.643c-2.51,-2.494 -4.327,-4.793 0.117,-1.548c1.712,0.067 -3.804,-5.228 0.412,-1.681c4.434,0.808 2.19,7.269 -0.529,3.229Zm3.831,-0.1c1.458,-1.445 0.774,1.422 0,-0Zm2.358,0.756c-2.21,-4.142 2.682,1.736 0,-0Zm-4.687,-4.48c-7.297,-6.493 9.169,3.396 1.192,1.204l-1.192,-1.203l0,-0.001Zm20.906,12.147c-3.157,-1.893 -0.837,-13.328 0.24,-5.507c3.07,-0.993 -0.169,4.039 2.12,3.992c-0.361,3.175 -1.385,4.317 -2.36,1.515Zm7.733,4.57c0.309,-3.446 0.651,2.357 -0,0Zm-1.343,-1.327c0.347,-1.472 0.035,1.734 -0,0Zm-25.865,-17.523c-4.687,-6.468 13.624,6.542 3.003,1.64c-1.11,-0.29 -2.445,-0.394 -3.003,-1.64Zm14.891,7.895c-0.444,-5.446 0.991,0.902 -0,-0l-0,-0Zm11.305,7.252c0.875,-3.102 0.065,2.052 0,-0Zm-25.478,-17.616c2.787,-0.596 11.546,4.893 3.502,1.568c-0.894,-0.989 -2.799,-0.54 -3.502,-1.568Zm23.925,11.924c0.298,-5.568 1.663,-3.326 0.01,0.798l-0.01,-0.798l-0,0l-0,0Zm-21.851,-13.861c1.136,-1.665 -3.013,-7.529 0.598,-2.103c1.561,1.239 4.518,2.077 1.907,2.598c4.107,3.623 -1.002,0.982 -2.505,-0.495Zm20.668,12.122c0.784,-6.343 0.691,3.716 -0,0Zm-23.038,-17.981c0.867,-0.371 0.457,1.155 -0,-0Zm5.39,3.209c1.388,-2.912 2.56,3.246 0,-0Zm15.207,8.459c-0.015,-1.118 0.287,1.626 -0,-0Zm-0.881,-1.95c-2.111,-5.207 1.963,2.756 0,-0Zm-1.296,-3.414c-0.354,-2.152 1.204,2.703 0,-0l0,-0Zm2.109,-3.429c-1.448,-2.552 1.829,-11.247 2.195,-5.854c-1.529,4.201 -0.441,6.552 0.625,0.916c1.97,-4.435 -0.425,8.753 -2.82,4.938l0,0Zm2.167,-12.931c0.632,-0.775 0.141,0.934 0,0Zm-3.619,71.321c-0.858,-0.749 0.108,0.477 0,0Zm7.456,3.772c4.148,1.065 4.127,-0.645 0.378,-1.153c-2.016,-1.876 -8.378,-3.865 -2.684,-0.233c0.377,0.956 1.569,0.933 2.306,1.386Zm-14.726,-9.781c2.285,1.704 8.607,4.829 3.255,0.649c1.805,-2.096 -3.453,-3.212 -1.709,-4.614c-4.436,-2.715 -3.5,-2.474 -0.391,-2.388c-5.332,-2.383 0.769,-2.205 0.482,-3.426c-2.056,-0.406 -10.211,-3.625 -5.414,0.264c-4.877,-2.487 -1.162,0.927 -2.636,0.566c-4.987,-1.36 4.441,3.798 -0.792,2.518c2.861,2.267 7.701,5.808 1.209,2.399c-0.855,1.232 4.646,3.098 5.996,4.032Zm7.799,4.481c9.482,3.055 -4.649,-3.733 -0,-0Zm39.92,24.183c0.123,-1.881 -1.296,1.605 0,0Zm4.104,1.727c2.187,-2.119 0.089,3.377 3.625,-0.519c0.038,-2.788 -0.109,-4.436 -4.063,-1.048c-1.09,0.605 -1.577,3.175 0.438,1.567Zm-65.133,-40.904c-0.671,-2.641 -4.709,-2.627 0,0Zm4.382,2.871c-1.627,-2.697 -5.805,-2.442 -0,0Zm24.925,15.032c2.434,2.162 11.177,1.586 2.956,0.266c-1.217,-1.8 -7.732,-1.367 -2.956,-0.266Zm34.265,21.162c3.745,-3.143 -3.629,1.402 -0,-0Zm7.79,5.353c0.023,-1.009 -1.615,0.441 -0,-0Zm0.012,-1.412c4.147,-4.395 -4.019,0.259 -0,-0l-0,-0Zm-82.15,-52.027c-3.535,-5.044 -2.197,-7.311 -5.606,-11.43c-0.646,-3.149 -5.848,-10.296 -2.691,-2.724c2.892,4.428 3.751,11.283 8.297,14.154Zm80.849,50.63c7.63,-4.932 -3.133,-2.149 -0,-0Zm5.825,2.281c3.821,-3.28 -2.418,-0.686 -0,0Zm-77.196,-49.465c1.093,-1.627 -2.825,-0.208 -0,0Zm75.979,47.907c3.7,-2.385 -0.852,-2.019 -0.67,0.22l0.67,-0.22l0,0Zm-50.211,-31.648c-0.127,-1.611 -1.954,0.137 -0,-0Zm3.103,1.785c-0.986,-1.993 -1.516,0.314 -0,0Zm53.045,31.476c4.74,-3.42 -2.873,-0.655 -0.995,0.647l0.995,-0.647Zm-1.815,-0.878c3.861,-3.235 -4.077,1.434 -0,0Zm9.274,6.176c2.592,-1.737 -3.15,-0.562 -0,-0Zm-86.998,-55.991c3.476,0.778 13.888,8.558 7.745,0.538c-3.146,-0.931 -1.259,-8.622 -4.468,-7.261c2.154,3.598 1.772,5.13 -2.75,2.862c-5.684,-2.775 -3.195,1.375 -2.084,2.518c-1.513,0.344 2.003,1.314 1.557,1.343Zm-15.832,-12.504c0.622,-2.573 -5.729,-14.156 -2.999,-5.804c0.985,1.75 0.885,5.066 2.999,5.804Zm29.06,17.916c-1.79,-1.496 -0.085,-0.212 -0,0Zm4.406,1.026c-0.002,-2.726 -4.871,-1.107 0,-0Zm38.187,24.073c-0.728,-1.862 -2.879,-0.043 0,-0l0,-0Zm1.834,1.339c-0.271,-1.042 -1.058,0.202 -0,0Zm15.136,9.534c1.456,-1.075 -1.817,-0.137 -0,0Zm-80.715,-51.869c4.164,-1.612 -4.461,-1.149 0,0Zm60.383,38.042c-0.046,-2.696 -2.654,0.669 0,-0Zm-62.028,-41.876c2.675,-0.903 -2.474,-0.595 0,0Zm7.763,3.761c-0.048,-0.886 -0.821,0.335 0,0Zm94.69,58.065c3.439,-0.698 11.276,1.75 12.543,-0.912c-4.176,-0.102 -14.45,-2.947 -14.936,0.679l0.914,0.144l1.479,0.089l-0,-0Zm-92.222,-57.443c0.06,-2.732 -2.13,-0.102 -0,-0Zm-20.412,-14.159c-0.927,-5.205 -3.525,-0.788 0,-0Zm4.868,1.223c0.059,-1.671 -4.456,-1.504 -0,0Zm2.781,1.366c-0.804,-0.651 -0.629,0.823 0,0Zm17.502,11.228c0.824,-0.757 -1.95,-0.561 0,-0Zm-19.354,-14.309c-0.471,-3.931 -5.638,-0.589 -0,0Zm-9.979,-6.475c-0.142,-1.814 -0.973,0.685 -0,0Zm1.484,-1.121c-0.242,-2.151 -1.275,0.274 -0,0Zm8.201,4.896c3.468,-1.363 -6.317,-2.818 -0.708,-0.258l0.708,0.258Zm109.763,67.798c2.22,-2.035 -2.821,-0.629 -0,0Zm13.26,6.874c0.89,-2.631 -2.24,0.346 0,-0Zm-122.185,-78.971c0.366,-2.545 -2.749,0.505 0,0Zm-11.668,-7.818c-0.627,-3.593 -0.541,-9.901 5.454,-7.769c-8.003,1.589 5.54,9.947 3.829,3.348c3.366,0.165 6.583,-1.989 4.817,1.279c6.631,-0.732 11.228,-6.481 17.632,-5.676c4.989,-0.66 10.444,-1.161 15.82,-3.169c4.42,-0.318 8.675,-5.077 6.252,-7.898c-6.028,-0.51 -12.338,0.244 -19,1.569c-7.383,1.534 -14.089,4.45 -21.538,5.702c-7.261,0.975 1.46,2.687 -0.619,3.069c-3.789,1.314 4.518,2.201 -0.492,3.587c-3.093,-0.589 -6.314,-1.652 -4.992,-4.912c-6.955,0.903 -13.067,3.789 -7.572,10.867l0.409,0.003l-0,-0l-0,0Zm16.759,-8.535c1.631,-6.008 8.737,4.943 2.673,0.798c-0.724,-0.542 -1.915,-0.985 -2.673,-0.798Zm0.317,-2.913c2.354,-1.753 1.252,0.983 0,0Zm2.989,0.048c0.213,-2.765 6.841,1.463 1.093,0.995l-1.093,-0.995Zm4.088,-1.644c1.493,-1.744 0.429,1.552 0,-0Zm1.046,-0.7c2.486,-2.987 14.077,-1.907 5.593,-0.292c-2.274,-1.712 -4.018,1.01 -5.593,0.292Zm15.127,-2.332c-0.378,-8.159 7.516,2.899 0,-0Zm4.293,-0.024c1.569,-4.112 6.09,-1.65 0.726,-0.826c0.116,0.437 -0.157,2.123 -0.726,0.826Zm-34.643,21.807c4.689,-2.871 -4.978,-2.491 -0,0Zm3.467,0.964c1.644,-1.748 -3.572,-0.709 -0,-0Zm-10.215,-7.25c2.679,-2.058 -3.171,-0.783 -0,0Zm138.452,86.616c0.077,-2.388 -2.048,1.076 -0,-0Zm-14.069,-9.601c0.401,-2.749 -1.807,0.24 0,0Zm17.938,10.527c3.746,0.012 11.35,-1.164 3.199,-1.16c-1.279,0.2 -7.452,0.157 -3.199,1.16l-0,-0Zm-129.057,-81.977c3.032,-0.208 4.743,-3.344 -0.586,-3.164c-8.26,-0.855 7.287,2.828 -1.06,1.775c-1.121,0.743 1.581,1.594 1.646,1.389Zm2.67,1.351c-0.316,-1.946 -0.937,1.034 0,0Zm3.167,-8.445c1.316,-1.632 -1.82,-0.436 0,-0Zm-10.082,-16.853c5.411,-1.841 12.809,-3.909 15.364,0.906c-2.6,-3.129 -1.049,-6.21 1.407,-1.634c3.472,4.629 5.21,-2.106 2.952,-3.659c2.573,3.198 5.501,4.709 1.723,0.203c4.105,-4.939 -8.22,0.646 -11.021,0.59c-1.348,0.605 -13.916,3.205 -10.425,3.594Zm3.171,-6.073c3.086,-2.329 10.672,1.385 5.804,-2.315c-0.476,-0.42 -10.661,2.806 -5.804,2.315Zm11.249,0.464c3.612,0.093 -1.557,-4.851 2.746,-2.611c-0.707,-2.309 -5.01,-2.741 -7.114,-3.663c-1.19,2.11 2.422,6.303 4.368,6.274Zm-9.276,-10.211c1.249,-1.694 -2.19,0.858 -0,-0Zm4.597,1.1c5.82,-0.772 -1.483,-2.506 -1.172,-0.062l1.172,0.062l0,0l0,0Zm-8.585,-6.717c-4.097,-5.349 7.707,0.899 3.543,-4.702c-3.504,-2.79 -6.871,3.14 -3.543,4.702Zm52.588,28.325c1.879,-3.332 -7.759,-4.491 -1.266,-1.181c0.598,0.2 0.462,1.411 1.266,1.181Z" style="fill-rule:nonzero;"/></svg>