<?xml version="1.0" encoding="UTF-8" standalone="no"?><!DOCTYPE svg PUBLIC "-//W3C//DTD SVG 1.1//EN" "http://www.w3.org/Graphics/SVG/1.1/DTD/svg11.dtd"><svg width="100%" height="100%" viewBox="0 0 185 185" version="1.1" xmlns="http://www.w3.org/2000/svg" xmlns:xlink="http://www.w3.org/1999/xlink" xml:space="preserve" xmlns:serif="http://www.serif.com/" style="fill-rule:evenodd;clip-rule:evenodd;stroke-linejoin:round;stroke-miterlimit:2;"><rect id="Git" x="0" y="0" width="184.32" height="184.32" style="fill:none;"/><path d="M169.758,84.976l-70.416,-70.414c-4.054,-4.056 -10.631,-4.056 -14.689,0l-14.622,14.624l18.548,18.549c4.311,-1.457 9.254,-0.479 12.689,2.956c3.456,3.457 4.424,8.442 2.931,12.768l17.878,17.877c4.326,-1.492 9.313,-0.528 12.769,2.933c4.826,4.825 4.826,12.648 -0,17.476c-4.83,4.83 -12.652,4.83 -17.484,-0c-3.629,-3.633 -4.528,-8.969 -2.687,-13.441l-16.674,-16.672l0,43.872c1.176,0.582 2.287,1.36 3.267,2.338c4.826,4.826 4.826,12.647 -0,17.481c-4.827,4.825 -12.653,4.825 -17.477,0c-4.826,-4.834 -4.826,-12.655 0,-17.481c1.194,-1.192 2.575,-2.094 4.05,-2.698l-0,-44.279c-1.475,-0.603 -2.853,-1.498 -4.05,-2.696c-3.656,-3.655 -4.535,-9.022 -2.659,-13.512l-18.285,-18.289l-48.285,48.282c-4.056,4.059 -4.056,10.636 0,14.692l70.419,70.414c4.055,4.055 10.63,4.055 14.689,0l70.088,-70.087c4.056,-4.057 4.056,-10.638 -0,-14.693" style="fill-rule:nonzero;"/></svg>