<?xml version="1.0" encoding="UTF-8" standalone="no"?><!DOCTYPE svg PUBLIC "-//W3C//DTD SVG 1.1//EN" "http://www.w3.org/Graphics/SVG/1.1/DTD/svg11.dtd"><svg width="100%" height="100%" viewBox="0 0 185 185" version="1.1" xmlns="http://www.w3.org/2000/svg" xmlns:xlink="http://www.w3.org/1999/xlink" xml:space="preserve" xmlns:serif="http://www.serif.com/" style="fill-rule:evenodd;clip-rule:evenodd;stroke-linejoin:round;stroke-miterlimit:2;"><rect id="Google-Docs" serif:id="Google Docs" x="0" y="0" width="184.32" height="184.32" style="fill:none;"/><g><path d="M99.987,11.52l6.834,-0l-62.125,-0c-5.965,-0 -10.935,4.97 -10.935,10.934l0,139.412c0,5.964 4.97,10.934 10.935,10.934l94.928,-0c5.965,-0 10.935,-4.97 10.935,-10.934l-0,-99.569l-32.958,0c-1.98,-0.013 -3.941,-0.341 -5.807,-1.008c-6.917,-2.474 -11.807,-9.244 -11.807,-16.606c-0.001,-11.054 -0,-22.109 -0,-33.163Zm-36.902,132.204l43.736,-0l-0,-7.455l-43.736,0l-0,7.455Zm-0,-14.662l58.397,0l0,-7.454l-58.397,-0l-0,7.454Zm-0,-14.662l58.397,0l0,-7.454l-58.397,0l-0,7.454Zm-0,-22.117l-0,7.454l58.397,0l0,-7.454l-58.397,-0Zm87.474,-36.778l-0.008,-0.005l-0,0.621c0.002,0.687 0.004,1.374 0.008,2.062l-0,-2.678Zm-43.076,-43.051l-0.817,-0.821l0,33.05c0,5.965 4.97,10.935 10.935,10.935l32.801,-0l-0.783,-0.788l-24.656,-17.714l-17.48,-24.662Z"/><g><path d="M106.666,11.633l0,33.05c0,5.965 4.97,10.935 10.935,10.935l32.801,-0l-43.736,-43.985Z" style="fill-rule:nonzero;"/></g></g></svg>