<?xml version="1.0" encoding="UTF-8" standalone="no"?><!DOCTYPE svg PUBLIC "-//W3C//DTD SVG 1.1//EN" "http://www.w3.org/Graphics/SVG/1.1/DTD/svg11.dtd"><svg width="100%" height="100%" viewBox="0 0 185 185" version="1.1" xmlns="http://www.w3.org/2000/svg" xmlns:xlink="http://www.w3.org/1999/xlink" xml:space="preserve" xmlns:serif="http://www.serif.com/" style="fill-rule:evenodd;clip-rule:evenodd;stroke-linejoin:round;stroke-miterlimit:2;"><rect id="HTML5" x="0" y="0" width="184.32" height="184.32" style="fill:none;"/><g><path d="M68.655,77.226l23.505,0l-0,-18.23l-25.132,-0l1.627,18.23Zm-47.562,-65.706l12.942,145.154l58.09,16.126l58.144,-16.118l12.958,-145.162l-142.134,0Zm118.084,135.919l-47.017,13.035l-0,-18.474l-0.029,0.008l-36.468,-10.124l-2.55,-28.585l17.871,0l1.324,14.83l19.827,5.355l0.025,-0.008l0,-28.447l-39.786,0l-4.802,-53.836l44.588,-0l-0,-17.803l58.091,-0l-11.074,124.049Z" style="fill-rule:nonzero;"/><path d="M114.073,95.029l-21.913,0l-0,28.447l19.847,-5.357l2.066,-23.09Zm-21.913,-71.64l-0,17.804l44.588,-0l-1.595,17.803l-42.993,-0l-0,18.23l41.373,0l-4.884,54.658l-36.489,10.116l-0,18.474l47.017,-13.035l11.073,-124.05l-58.09,0Z" style="fill-rule:nonzero;"/></g></svg>