<?xml version="1.0" encoding="UTF-8" standalone="no"?>
<!DOCTYPE svg PUBLIC "-//W3C//DTD SVG 1.1//EN" "http://www.w3.org/Graphics/SVG/1.1/DTD/svg11.dtd">
<svg width="100%" height="100%" viewBox="0 0 1000 1000" version="1.1" xmlns="http://www.w3.org/2000/svg" xmlns:xlink="http://www.w3.org/1999/xlink" xml:space="preserve" xmlns:serif="http://www.serif.com/" style="fill-rule:evenodd;clip-rule:evenodd;stroke-linejoin:round;stroke-miterlimit:2;">
    <rect id="Artboard1" x="0" y="0" width="1000" height="1000" style="fill:none;"/>
    <g id="Artboard11" serif:id="Artboard1">
        <g transform="matrix(2.45547,0,0,2.45547,-162.691,44.4933)">
            <path d="M221.194,286.925C221.194,286.925 207.016,295.17 231.284,297.96C260.684,301.314 275.71,300.833 308.109,294.701C308.109,294.701 316.627,300.042 328.523,304.668C255.893,335.796 164.147,302.865 221.194,286.925M212.319,246.305C212.319,246.305 196.417,258.076 220.703,260.588C252.109,263.828 276.911,264.093 319.828,255.829C319.828,255.829 325.765,261.847 335.099,265.138C247.284,290.816 149.475,267.163 212.319,246.305" style="fill-rule:nonzero;"/>
            <path d="M287.138,177.4C305.034,198.004 282.437,216.546 282.437,216.546C282.437,216.546 327.876,193.088 307.008,163.713C287.517,136.318 272.57,122.708 353.487,75.779C353.488,75.778 226.474,107.5 287.138,177.4" style="fill-rule:nonzero;"/>
            <path d="M383.197,316.97C383.197,316.97 393.689,325.616 371.642,332.303C329.719,345.003 197.154,348.838 160.328,332.81C147.09,327.05 171.915,319.058 179.724,317.381C187.868,315.615 192.522,315.944 192.522,315.944C177.8,305.573 97.365,336.307 151.665,345.11C299.749,369.125 421.609,334.296 383.197,316.97M228.012,204.218C228.012,204.218 160.581,220.234 204.133,226.05C222.522,228.512 259.18,227.955 293.325,225.094C321.231,222.74 349.253,217.736 349.253,217.736C349.253,217.736 339.413,221.95 332.294,226.81C263.819,244.82 131.538,236.441 169.62,218.02C201.826,202.452 228.012,204.218 228.012,204.218M348.975,271.832C418.583,235.661 386.4,200.9 363.935,205.584C358.429,206.73 355.974,207.723 355.974,207.723C355.974,207.723 358.019,204.521 361.921,203.135C406.362,187.511 440.54,249.216 347.575,273.656C347.575,273.656 348.654,272.694 348.975,271.832" style="fill-rule:nonzero;"/>
            <path d="M307.008,0C307.008,0 345.558,38.562 270.445,97.862C210.212,145.429 256.71,172.551 270.42,203.54C235.262,171.817 209.46,143.893 226.77,117.903C252.176,79.752 322.562,61.255 307.008,-0" style="fill-rule:nonzero;"/>
            <path d="M234.852,369.847C301.667,374.124 404.269,367.474 406.698,335.86C406.698,335.86 402.028,347.844 351.479,357.363C294.452,368.094 224.115,366.842 182.398,359.964C182.4,359.962 190.939,367.031 234.852,369.847" style="fill-rule:nonzero;"/>
        </g>
    </g>
</svg>
