<?xml version="1.0" encoding="UTF-8" standalone="no"?><!DOCTYPE svg PUBLIC "-//W3C//DTD SVG 1.1//EN" "http://www.w3.org/Graphics/SVG/1.1/DTD/svg11.dtd"><svg width="100%" height="100%" viewBox="0 0 185 185" version="1.1" xmlns="http://www.w3.org/2000/svg" xmlns:xlink="http://www.w3.org/1999/xlink" xml:space="preserve" xmlns:serif="http://www.serif.com/" style="fill-rule:evenodd;clip-rule:evenodd;stroke-linejoin:round;stroke-miterlimit:2;"><rect id="JavaScript" x="0" y="0" width="184.32" height="184.32" style="fill:none;"/><path d="M172.799,46.959c-0,-19.559 -15.88,-35.439 -35.439,-35.439l-90.401,0c-19.559,0 -35.439,15.88 -35.439,35.439l0,90.402c0,19.559 15.88,35.439 35.439,35.439l90.401,0c19.559,0 35.439,-15.88 35.439,-35.439l-0,-90.402Zm-65.28,97.714l12.341,-7.145c3.248,5.305 7.47,9.202 14.94,9.202c6.28,0 10.285,-3.14 10.285,-7.47c-0,-5.197 -4.114,-7.037 -11.043,-10.068l-3.788,-1.625c-10.935,-4.654 -18.189,-10.5 -18.189,-22.842c0,-11.367 8.661,-20.028 22.194,-20.028c9.635,-0 16.564,3.356 21.543,12.125l-11.8,7.578c-2.599,-4.654 -5.413,-6.495 -9.743,-6.495c-4.439,0 -7.254,2.815 -7.254,6.495c0,4.547 2.815,6.388 9.31,9.203l3.789,1.624c12.883,5.521 20.137,11.15 20.137,23.816c-0,13.642 -10.718,21.111 -25.116,21.111c-14.074,-0 -23.168,-6.712 -27.606,-15.481Zm-53.592,1.624l12.341,-7.47c2.381,4.222 4.547,7.794 9.743,7.794c4.98,-0 8.12,-1.948 8.12,-9.526l-0,-51.532l15.156,-0l-0,51.747c-0,15.697 -9.202,22.843 -22.626,22.843c-12.125,-0 -19.163,-6.28 -22.734,-13.856Zm-0,-0l-0.001,-0l0,-0.001l0.001,0.001Z"/></svg>