<?xml version="1.0" encoding="UTF-8" standalone="no"?><!DOCTYPE svg PUBLIC "-//W3C//DTD SVG 1.1//EN" "http://www.w3.org/Graphics/SVG/1.1/DTD/svg11.dtd"><svg width="100%" height="100%" viewBox="0 0 185 185" version="1.1" xmlns="http://www.w3.org/2000/svg" xmlns:xlink="http://www.w3.org/1999/xlink" xml:space="preserve" xmlns:serif="http://www.serif.com/" style="fill-rule:evenodd;clip-rule:evenodd;stroke-linejoin:round;stroke-miterlimit:2;"><rect id="Meteor" x="0" y="0" width="184.32" height="184.32" style="fill:none;"/><g id="g6"><path id="path8" d="M11.52,13.092l138.12,146.303c-0,-0 4.705,3.318 8.304,-0.554c3.598,-3.871 0.83,-7.743 0.83,-7.743l-147.254,-138.006Z" style="fill-rule:nonzero;"/><path id="path10" d="M55.253,26.92l105.182,113.392c-0,-0 4.705,3.318 8.304,-0.553c3.598,-3.872 0.83,-7.744 0.83,-7.744l-114.316,-105.095Z" style="fill-rule:nonzero;"/><path id="path12" d="M24.529,56.513l105.182,113.391c-0,-0 4.705,3.319 8.304,-0.553c3.598,-3.872 0.83,-7.744 0.83,-7.744l-114.316,-105.094Z" style="fill-rule:nonzero;"/><path id="path14" d="M92.224,38.813l73.484,79.219c0,0 3.288,2.319 5.802,-0.386c2.513,-2.705 0.58,-5.41 0.58,-5.41l-79.866,-73.423Z" style="fill-rule:nonzero;"/><path id="path16" d="M34.651,90.807l73.484,79.219c0,0 3.288,2.319 5.802,-0.386c2.513,-2.705 0.58,-5.41 0.58,-5.41l-79.866,-73.423Z" style="fill-rule:nonzero;"/><path id="path18" d="M129.988,55.96l33.305,36.014c-0,-0 1.626,1.086 2.87,-0.181c1.243,-1.268 0.287,-2.535 0.287,-2.535l-36.462,-33.298Z" style="fill-rule:nonzero;"/><path id="path20" d="M53.039,127.313l33.305,36.014c0,0 1.627,1.087 2.87,-0.181c1.244,-1.267 0.287,-2.535 0.287,-2.535l-36.462,-33.298Z" style="fill-rule:nonzero;"/></g></svg>