<?xml version="1.0" encoding="UTF-8" standalone="no"?><!DOCTYPE svg PUBLIC "-//W3C//DTD SVG 1.1//EN" "http://www.w3.org/Graphics/SVG/1.1/DTD/svg11.dtd"><svg width="100%" height="100%" viewBox="0 0 185 185" version="1.1" xmlns="http://www.w3.org/2000/svg" xmlns:xlink="http://www.w3.org/1999/xlink" xml:space="preserve" xmlns:serif="http://www.serif.com/" style="fill-rule:evenodd;clip-rule:evenodd;stroke-linejoin:round;stroke-miterlimit:2;"><rect id="MongoDB" x="0" y="0" width="184.32" height="184.32" style="fill:none;"/><path d="M127.059,75.728c-8.494,-37.491 -28.571,-49.819 -30.732,-54.528c-2.371,-3.324 -4.761,-9.233 -4.761,-9.233c-0.04,-0.1 -0.103,-0.277 -0.177,-0.447c-0.244,3.324 -0.369,4.606 -3.512,7.955c-4.864,3.805 -29.824,24.746 -31.855,67.341c-1.895,39.725 28.697,63.399 32.845,66.417l0.469,0.332l-0,-0.029c0.025,0.199 1.311,9.455 2.216,19.264l3.239,-0c0.762,-6.933 1.904,-13.819 3.42,-20.627l0.251,-0.17c1.85,-1.327 3.614,-2.77 5.281,-4.321l0.189,-0.17c8.793,-8.125 24.605,-26.917 24.449,-56.877c-0.031,-4.997 -0.473,-9.982 -1.322,-14.907Zm-35.858,55.075c-0,0 -0,-55.717 1.846,-55.706c1.433,-0 3.291,71.868 3.291,71.868c-2.559,-0.306 -5.137,-11.826 -5.137,-16.162Z" style="fill-rule:nonzero;"/></svg>