<?xml version="1.0" encoding="UTF-8" standalone="no"?><!DOCTYPE svg PUBLIC "-//W3C//DTD SVG 1.1//EN" "http://www.w3.org/Graphics/SVG/1.1/DTD/svg11.dtd"><svg width="100%" height="100%" viewBox="0 0 185 185" version="1.1" xmlns="http://www.w3.org/2000/svg" xmlns:xlink="http://www.w3.org/1999/xlink" xml:space="preserve" xmlns:serif="http://www.serif.com/" style="fill-rule:evenodd;clip-rule:evenodd;stroke-linejoin:round;stroke-miterlimit:2;"><rect id="MonoGame" x="0" y="0" width="184.32" height="184.32" style="fill:none;"/><path d="M172.224,81.147l-0,-22.025c-0,-26.258 -21.344,-47.602 -47.602,-47.602c-12.806,0 -24.465,5.094 -33.038,13.38c-8.573,-8.25 -20.232,-13.38 -33.038,-13.38c-26.258,0 -47.602,21.38 -47.602,47.602l0,66.076c0,26.258 21.344,47.602 47.602,47.602l66.076,0c26.258,0 47.602,-21.344 47.602,-47.602l-0,-31.998l-95.204,0l0,29.128l66.076,0l0,2.87c0,10.188 -8.286,18.474 -18.474,18.474l-66.076,0c-10.188,0 -18.474,-8.286 -18.474,-18.474l-0,-66.076c-0,-10.188 8.286,-18.474 18.474,-18.474c10.188,-0 18.474,8.286 18.474,18.474l0,22.025l29.128,0l-0,-22.025c-0,-10.188 8.286,-18.474 18.474,-18.474c10.188,-0 18.474,8.286 18.474,18.474l0,22.025l29.128,0Z" style="fill-rule:nonzero;"/></svg>