<?xml version="1.0" encoding="UTF-8" standalone="no"?><!DOCTYPE svg PUBLIC "-//W3C//DTD SVG 1.1//EN" "http://www.w3.org/Graphics/SVG/1.1/DTD/svg11.dtd"><svg width="100%" height="100%" viewBox="0 0 185 185" version="1.1" xmlns="http://www.w3.org/2000/svg" xmlns:xlink="http://www.w3.org/1999/xlink" xml:space="preserve" xmlns:serif="http://www.serif.com/" style="fill-rule:evenodd;clip-rule:evenodd;stroke-linejoin:round;stroke-miterlimit:2;"><rect id="MySQL" x="0" y="0" width="184.32" height="184.32" style="fill:none;"/><g><path d="M160.042,135.502c-8.797,-0.239 -15.517,0.579 -21.262,3.002c-1.633,0.689 -4.236,0.707 -4.503,2.753c0.898,0.94 1.037,2.345 1.75,3.501c1.371,2.22 3.688,5.195 5.754,6.755c2.258,1.705 4.585,3.527 7.006,5.004c4.305,2.625 9.111,4.124 13.257,6.754c2.443,1.55 4.871,3.502 7.254,5.252c1.178,0.865 1.971,2.21 3.502,2.753l0,-0.251c-0.805,-1.024 -1.012,-2.433 -1.751,-3.503l-3.252,-3.252c-3.179,-4.22 -7.216,-7.927 -11.507,-11.006c-3.421,-2.456 -11.08,-5.773 -12.507,-9.756l-0.251,-0.251c2.426,-0.273 5.267,-1.151 7.506,-1.75c3.761,-1.009 7.121,-0.748 11.006,-1.752c1.75,-0.5 3.502,-1.001 5.254,-1.501l-0,-1c-1.964,-2.015 -3.364,-4.681 -5.506,-6.504c-5.6,-4.77 -11.714,-9.536 -18.009,-13.509c-3.492,-2.204 -7.807,-3.636 -11.507,-5.504c-1.245,-0.628 -3.433,-0.954 -4.254,-2.002c-1.944,-2.477 -3.002,-5.619 -4.502,-8.505c-3.14,-6.046 -6.224,-12.651 -9.005,-19.013c-1.898,-4.338 -3.138,-8.615 -5.504,-12.508c-11.358,-18.675 -23.585,-29.945 -42.525,-41.025c-4.03,-2.356 -8.883,-3.288 -14.01,-4.503l-8.255,-0.501c-1.68,-0.703 -3.427,-2.756 -5.004,-3.753c-6.274,-3.963 -22.367,-12.585 -27.015,-1.25c-2.934,7.155 4.386,14.137 7.004,17.762c1.837,2.543 4.19,5.394 5.503,8.255c0.864,1.88 1.013,3.765 1.752,5.754c1.819,4.9 3.399,10.231 5.753,14.759c1.189,2.291 2.499,4.705 4.003,6.753c0.922,1.259 2.501,1.813 2.75,3.754c-1.544,2.162 -1.632,5.517 -2.501,8.255c-3.909,12.328 -2.435,27.65 3.252,36.774c1.746,2.8 5.856,8.807 11.507,6.504c4.944,-2.014 3.84,-8.254 5.254,-13.758c0.32,-1.249 0.123,-2.167 0.75,-3.003l-0,0.251l4.502,9.005c3.333,5.366 9.248,10.975 14.26,14.76c2.599,1.962 4.645,5.356 8.005,6.504l0,-0.251l-0.251,0c-0.65,-1.014 -1.669,-1.435 -2.5,-2.251c-1.959,-1.919 -4.135,-4.305 -5.754,-6.504c-4.559,-6.189 -8.587,-12.961 -12.257,-20.013c-1.753,-3.365 -3.277,-7.081 -4.755,-10.507c-0.569,-1.32 -0.562,-3.317 -1.749,-4.003c-1.619,2.511 -4.002,4.542 -5.254,7.506c-2.001,4.739 -2.26,10.517 -3.001,16.51c-0.439,0.157 -0.245,0.049 -0.502,0.249c-3.483,-0.84 -4.708,-4.426 -6.002,-7.503c-3.277,-7.781 -3.884,-20.311 -1.003,-29.268c0.746,-2.318 4.117,-9.618 2.753,-11.758c-0.651,-2.136 -2.8,-3.372 -4.003,-5.004c-1.487,-2.018 -2.973,-4.675 -4.003,-7.005c-2.68,-6.068 -3.931,-12.878 -6.753,-19.011c-1.349,-2.932 -3.63,-5.899 -5.504,-8.506c-2.074,-2.886 -4.396,-5.015 -6.003,-8.506c-0.572,-1.241 -1.349,-3.227 -0.502,-4.503c0.271,-0.86 0.651,-1.22 1.503,-1.501c1.451,-1.118 5.492,0.372 7.003,1.001c4.012,1.666 7.36,3.253 10.758,5.503c1.631,1.082 3.281,3.174 5.252,3.754l2.252,-0c3.521,0.809 7.466,0.25 10.756,1.25c5.816,1.768 11.027,4.516 15.759,7.505c14.42,9.104 26.209,22.064 34.273,37.524c1.297,2.489 1.859,4.865 3.001,7.505c2.306,5.325 5.21,10.803 7.504,16.01c2.289,5.194 4.52,10.437 7.755,14.76c1.702,2.272 8.272,3.492 11.257,4.752c2.094,0.885 5.523,1.807 7.505,3.001c3.787,2.285 7.456,5.004 11.008,7.506c1.775,1.251 7.232,3.993 7.504,6.254l-0.001,-0Z" style="fill-rule:nonzero;"/><path d="M48.224,40.191c-1.834,-0.033 -3.132,0.201 -4.503,0.5l-0,0.251l0.25,-0c0.875,1.797 2.419,2.954 3.502,4.502c0.833,1.751 1.667,3.503 2.502,5.254l0.25,-0.25c1.549,-1.092 2.259,-2.839 2.251,-5.503c-0.621,-0.653 -0.713,-1.474 -1.251,-2.253c-0.715,-1.038 -2.099,-1.627 -3.001,-2.501Z"/></g></svg>