<?xml version="1.0" encoding="UTF-8" standalone="no"?><!DOCTYPE svg PUBLIC "-//W3C//DTD SVG 1.1//EN" "http://www.w3.org/Graphics/SVG/1.1/DTD/svg11.dtd"><svg width="100%" height="100%" viewBox="0 0 185 185" version="1.1" xmlns="http://www.w3.org/2000/svg" xmlns:xlink="http://www.w3.org/1999/xlink" xml:space="preserve" xmlns:serif="http://www.serif.com/" style="fill-rule:evenodd;clip-rule:evenodd;stroke-linejoin:round;stroke-miterlimit:2;"><rect id="Python" x="0" y="0" width="184.32" height="184.32" style="fill:none;"/><g id="Python1" serif:id="Python"><g><path id="path1948" d="M91.2,11.521c-6.651,0.031 -13.001,0.592 -18.59,1.57c-16.461,2.876 -19.45,8.897 -19.45,20l-0,14.664l38.901,0l0,4.888l-53.5,0c-11.306,0 -21.206,6.722 -24.302,19.508c-3.572,14.656 -3.731,23.801 -0,39.104c2.765,11.391 9.369,19.507 20.674,19.507l13.376,0l-0,-17.579c-0,-12.7 11.109,-23.902 24.301,-23.902l38.856,0c10.817,0 19.451,-8.808 19.451,-19.552l0,-36.638c0,-10.427 -8.894,-18.26 -19.451,-20c-6.682,-1.1 -13.616,-1.6 -20.266,-1.57Zm-21.038,11.794c4.018,0 7.3,3.299 7.3,7.355c-0,4.041 -3.282,7.309 -7.3,7.309c-4.032,0 -7.3,-3.268 -7.3,-7.309c0,-4.056 3.268,-7.355 7.3,-7.355Z" style="fill-rule:nonzero;"/><path id="path1950" d="M135.768,52.643l0,17.086c0,13.246 -11.354,24.395 -24.302,24.395l-38.856,0c-10.643,0 -19.45,9.01 -19.45,19.553l-0,36.637c-0,10.428 9.167,16.561 19.45,19.552c12.314,3.582 24.123,4.229 38.856,0c9.794,-2.804 19.451,-8.448 19.451,-19.552l0,-14.664l-38.856,0l0,-4.888l58.307,0c11.306,0 15.519,-7.8 19.45,-19.507c4.062,-12.053 3.889,-23.643 0,-39.104c-2.794,-11.132 -8.13,-19.508 -19.45,-19.508l-14.6,0Zm-21.853,92.783c4.032,0 7.299,3.268 7.299,7.31c0,4.056 -3.267,7.354 -7.299,7.354c-4.018,0 -7.3,-3.298 -7.3,-7.354c0,-4.042 3.282,-7.31 7.3,-7.31Z" style="fill-rule:nonzero;"/></g></g></svg>