<?xml version="1.0" encoding="UTF-8" standalone="no"?><!DOCTYPE svg PUBLIC "-//W3C//DTD SVG 1.1//EN" "http://www.w3.org/Graphics/SVG/1.1/DTD/svg11.dtd"><svg width="100%" height="100%" viewBox="0 0 185 185" version="1.1" xmlns="http://www.w3.org/2000/svg" xmlns:xlink="http://www.w3.org/1999/xlink" xml:space="preserve" xmlns:serif="http://www.serif.com/" style="fill-rule:evenodd;clip-rule:evenodd;stroke-linejoin:round;stroke-miterlimit:2;"><rect id="Qt" x="0" y="0" width="184.32" height="184.32" style="fill:none;"/><g><path d="M72.097,64.185c-6.223,-0 -10.514,2.038 -12.875,6.169c-2.306,4.13 -3.486,10.675 -3.486,19.741c-0,9.012 1.126,15.503 3.379,19.365c2.253,3.863 6.598,5.847 12.982,5.847c6.384,0 10.675,-1.931 12.928,-5.739c2.2,-3.809 3.326,-10.3 3.326,-19.366c0,-9.12 -1.126,-15.718 -3.433,-19.848c-2.307,-4.131 -6.598,-6.169 -12.821,-6.169Z" style="fill-rule:nonzero;"/><path d="M170.856,34.197l-135.559,0l-21.833,21.834l-0,94.092l135.559,-0l21.833,-21.834l0,-94.092Zm-73.546,99.94l-10.246,4.774l-8.851,-14.538c-1.288,0.376 -3.273,0.59 -6.062,0.59c-10.354,0 -17.596,-2.789 -21.673,-8.368c-4.076,-5.579 -6.115,-14.43 -6.115,-26.447c0,-12.07 2.092,-21.028 6.223,-26.875c4.13,-5.848 11.319,-8.798 21.565,-8.798c10.246,-0 17.434,2.897 21.511,8.744c4.131,5.794 6.169,14.752 6.169,26.876c0,7.993 -0.858,14.43 -2.521,19.312c-1.717,4.935 -4.453,8.69 -8.315,11.265l8.315,13.465Zm31.06,-10.407c-5.633,-0 -9.495,-1.288 -11.587,-3.863c-2.092,-2.575 -3.165,-7.456 -3.165,-14.645l-0,-23.174l-7.618,0l0,-9.227l7.618,0l-0,-14.484l10.782,0l0,14.484l13.733,0l0,9.281l-13.733,-0l0,21.94c0,4.077 0.322,6.759 0.912,8.047c0.59,1.341 2.146,1.985 4.56,1.985l8.154,-0.322l0.483,8.69c-4.399,0.858 -7.779,1.288 -10.139,1.288Z" style="fill-rule:nonzero;"/></g></svg>