<?xml version="1.0" encoding="UTF-8" standalone="no"?><!DOCTYPE svg PUBLIC "-//W3C//DTD SVG 1.1//EN" "http://www.w3.org/Graphics/SVG/1.1/DTD/svg11.dtd"><svg width="100%" height="100%" viewBox="0 0 185 185" version="1.1" xmlns="http://www.w3.org/2000/svg" xmlns:xlink="http://www.w3.org/1999/xlink" xml:space="preserve" xmlns:serif="http://www.serif.com/" style="fill-rule:evenodd;clip-rule:evenodd;stroke-linejoin:round;stroke-miterlimit:2;"><rect id="React" x="0" y="0" width="184.32" height="184.32" style="fill:none;"/><g><path d="M172.8,92.176c-0,-10.684 -13.38,-20.809 -33.893,-27.088c4.734,-20.908 2.63,-37.542 -6.641,-42.868c-2.136,-1.249 -4.635,-1.84 -7.363,-1.84l-0,7.33c1.512,0 2.728,0.296 3.747,0.855c4.471,2.564 6.411,12.328 4.898,24.886c-0.361,3.09 -0.953,6.345 -1.676,9.665c-6.443,-1.578 -13.479,-2.794 -20.875,-3.583c-4.438,-6.082 -9.041,-11.605 -13.676,-16.437c10.717,-9.961 20.777,-15.418 27.614,-15.418l0,-7.331c-9.04,-0 -20.875,6.443 -32.841,17.62c-11.966,-11.111 -23.801,-17.489 -32.841,-17.489l0,7.331c6.805,0 16.897,5.424 27.614,15.319c-4.602,4.833 -9.204,10.323 -13.577,16.405c-7.429,0.789 -14.464,2.005 -20.908,3.616c-0.756,-3.288 -1.315,-6.477 -1.709,-9.534c-1.545,-12.558 0.362,-22.321 4.8,-24.918c0.986,-0.592 2.268,-0.855 3.78,-0.855l0,-7.331c-2.761,0 -5.26,0.592 -7.429,1.841c-9.238,5.326 -11.309,21.927 -6.542,42.769c-20.448,6.312 -33.762,16.404 -33.762,27.055c-0,10.684 13.38,20.81 33.893,27.089c-4.734,20.908 -2.63,37.542 6.641,42.867c2.136,1.25 4.635,1.841 7.396,1.841c9.041,0 20.875,-6.443 32.841,-17.62c11.967,11.111 23.801,17.489 32.842,17.489c2.761,-0 5.259,-0.592 7.429,-1.841c9.238,-5.326 11.309,-21.927 6.542,-42.769c20.382,-6.279 33.696,-16.404 33.696,-27.056Zm-42.802,-21.927c-1.216,4.241 -2.729,8.613 -4.438,12.986c-1.348,-2.63 -2.761,-5.26 -4.306,-7.89c-1.513,-2.63 -3.124,-5.194 -4.734,-7.693c4.668,0.691 9.172,1.545 13.478,2.597Zm-15.056,35.011c-2.564,4.438 -5.194,8.646 -7.923,12.558c-4.898,0.428 -9.862,0.658 -14.859,0.658c-4.964,-0 -9.928,-0.23 -14.793,-0.625c-2.729,-3.912 -5.392,-8.087 -7.956,-12.492c-2.498,-4.307 -4.767,-8.679 -6.838,-13.084c2.039,-4.405 4.34,-8.81 6.805,-13.117c2.564,-4.438 5.194,-8.646 7.923,-12.558c4.898,-0.427 9.862,-0.657 14.859,-0.657c4.964,-0 9.928,0.23 14.793,0.625c2.729,3.912 5.392,8.087 7.956,12.492c2.498,4.306 4.767,8.678 6.838,13.084c-2.071,4.405 -4.34,8.81 -6.805,13.116Zm10.618,-4.273c1.775,4.405 3.287,8.81 4.537,13.084c-4.307,1.052 -8.843,1.939 -13.544,2.629c1.61,-2.531 3.221,-5.128 4.733,-7.791c1.513,-2.63 2.926,-5.292 4.274,-7.922Zm-33.334,35.076c-3.058,-3.156 -6.115,-6.673 -9.139,-10.519c2.958,0.131 5.983,0.23 9.04,0.23c3.09,-0 6.148,-0.066 9.139,-0.23c-2.959,3.846 -6.016,7.363 -9.04,10.519Zm-24.459,-19.363c-4.668,-0.69 -9.171,-1.545 -13.478,-2.597c1.216,-4.24 2.729,-8.613 4.438,-12.985c1.348,2.63 2.762,5.26 4.307,7.89c1.545,2.63 3.123,5.194 4.733,7.692Zm24.294,-68.41c3.058,3.156 6.115,6.673 9.139,10.519c-2.958,-0.131 -5.983,-0.23 -9.04,-0.23c-3.09,0 -6.147,0.066 -9.139,0.23c2.959,-3.846 6.016,-7.363 9.04,-10.519Zm-24.326,19.362c-1.611,2.532 -3.222,5.129 -4.734,7.792c-1.512,2.629 -2.926,5.259 -4.274,7.889c-1.775,-4.405 -3.287,-8.81 -4.537,-13.084c4.307,-1.019 8.844,-1.906 13.545,-2.597Zm-29.751,41.159c-11.638,-4.964 -19.166,-11.473 -19.166,-16.635c0,-5.161 7.528,-11.703 19.166,-16.634c2.827,-1.216 5.917,-2.301 9.106,-3.32c1.874,6.443 4.339,13.15 7.396,20.02c-3.024,6.838 -5.457,13.511 -7.298,19.922c-3.254,-1.019 -6.344,-2.137 -9.204,-3.353Zm17.686,46.977c-4.471,-2.564 -6.411,-12.328 -4.898,-24.886c0.361,-3.09 0.953,-6.345 1.676,-9.665c6.443,1.578 13.479,2.794 20.875,3.583c4.438,6.082 9.041,11.605 13.676,16.437c-10.717,9.961 -20.777,15.418 -27.614,15.418c-1.48,-0.033 -2.729,-0.328 -3.715,-0.887Zm77.977,-25.05c1.545,12.558 -0.362,22.321 -4.8,24.918c-0.986,0.592 -2.268,0.855 -3.78,0.855c-6.805,-0 -16.897,-5.424 -27.614,-15.319c4.602,-4.833 9.204,-10.323 13.577,-16.405c7.429,-0.789 14.464,-2.005 20.908,-3.616c0.756,3.321 1.347,6.509 1.709,9.567Zm12.657,-21.927c-2.828,1.216 -5.918,2.301 -9.107,3.32c-1.873,-6.443 -4.339,-13.15 -7.396,-20.02c3.024,-6.838 5.457,-13.512 7.298,-19.922c3.254,1.019 6.344,2.137 9.237,3.353c11.638,4.964 19.166,11.473 19.166,16.634c-0.033,5.162 -7.561,11.704 -19.198,16.635Z" style="fill:#000506;fill-rule:nonzero;"/><circle cx="92.127" cy="92.176" r="15.023" style="fill:#000506;"/></g></svg>