<?xml version="1.0" encoding="UTF-8" standalone="no"?><!DOCTYPE svg PUBLIC "-//W3C//DTD SVG 1.1//EN" "http://www.w3.org/Graphics/SVG/1.1/DTD/svg11.dtd"><svg width="100%" height="100%" viewBox="0 0 185 185" version="1.1" xmlns="http://www.w3.org/2000/svg" xmlns:xlink="http://www.w3.org/1999/xlink" xml:space="preserve" xmlns:serif="http://www.serif.com/" style="fill-rule:evenodd;clip-rule:evenodd;stroke-linejoin:round;stroke-miterlimit:2;"><rect id="Scala" x="0" y="0" width="184.32" height="184.32" style="fill:none;"/><g><path d="M123.649,21.307c-23.923,6.912 -61.876,10.813 -82.324,10.813l0,39.048c0.007,0.135 0.057,0.263 0.145,0.365c13.954,0 57.032,-4.562 83.024,-11.71c4.533,-1.154 8.977,-2.631 13.3,-4.418c3.178,-1.43 5.231,-2.936 5.231,-4.502l0,-39.383c-0.03,3.711 -9.695,6.996 -19.376,9.787Z"/><path d="M123.649,71.944c-14.318,4.129 -33.641,7.201 -51.245,8.996c-11.817,1.209 -22.859,1.84 -31.079,1.84l0,39.018c0.007,0.134 0.057,0.262 0.145,0.365c13.954,-0 57.032,-4.563 83.024,-11.703c4.532,-1.157 8.976,-2.634 13.3,-4.418c3.178,-1.438 5.231,-2.936 5.231,-4.502l0,-39.383c-0.03,3.703 -9.695,6.989 -19.376,9.787Z"/><path d="M123.649,122.611c-14.318,4.13 -33.641,7.194 -51.245,8.996c-11.832,1.209 -22.889,1.841 -31.109,1.841l-0,39.352c13.809,-0 57.108,-4.525 83.168,-11.703c9.604,-2.646 18.532,-5.658 18.532,-8.928l-0,-39.382c-0,3.741 -9.665,6.996 -19.346,9.824Z"/></g></svg>