<?xml version="1.0" encoding="UTF-8" standalone="no"?><!DOCTYPE svg PUBLIC "-//W3C//DTD SVG 1.1//EN" "http://www.w3.org/Graphics/SVG/1.1/DTD/svg11.dtd"><svg width="100%" height="100%" viewBox="0 0 185 185" version="1.1" xmlns="http://www.w3.org/2000/svg" xmlns:xlink="http://www.w3.org/1999/xlink" xml:space="preserve" xmlns:serif="http://www.serif.com/" style="fill-rule:evenodd;clip-rule:evenodd;stroke-linejoin:round;stroke-miterlimit:2;"><rect id="Swift" x="0" y="0" width="184.32" height="184.32" style="fill:none;"/><path d="M172.8,46.959c-0,-19.559 -15.88,-35.439 -35.439,-35.439l-90.402,-0c-19.559,-0 -35.439,15.88 -35.439,35.439l-0,90.402c-0,19.559 15.88,35.439 35.439,35.439l90.402,0c19.559,0 35.439,-15.88 35.439,-35.439l-0,-90.402Zm-33.495,64.104c0.178,-0.607 0.362,-1.211 0.519,-1.833c6.693,-26.668 -9.644,-58.199 -37.289,-74.8c12.116,16.424 17.471,36.315 12.712,53.712c-0.425,1.551 -0.935,3.041 -1.5,4.489c-0.612,-0.402 -1.383,-0.86 -2.419,-1.43c0,0 -27.501,-16.98 -57.307,-47.012c-0.781,-0.789 15.895,23.835 34.82,43.828c-8.915,-5.005 -33.763,-23.085 -49.495,-37.483c1.933,3.224 4.232,6.327 6.758,9.315c13.137,16.659 30.268,37.216 50.793,52.999c-14.421,8.825 -34.799,9.511 -55.086,0.009c-5.018,-2.352 -9.736,-5.19 -14.102,-8.413c8.589,13.736 21.816,25.588 37.914,32.508c19.197,8.25 38.288,7.69 52.507,0.135l-0.011,0.017c0.049,-0.031 0.102,-0.063 0.152,-0.093c0.639,-0.342 1.271,-0.695 1.889,-1.065c6.868,-3.526 20.27,-7.005 27.472,7.009c1.773,3.448 5.542,-14.829 -8.315,-31.879c-0.004,-0.006 -0.007,-0.009 -0.012,-0.013Z"/></svg>