<?xml version="1.0" encoding="UTF-8" standalone="no"?><!DOCTYPE svg PUBLIC "-//W3C//DTD SVG 1.1//EN" "http://www.w3.org/Graphics/SVG/1.1/DTD/svg11.dtd"><svg width="100%" height="100%" viewBox="0 0 185 185" version="1.1" xmlns="http://www.w3.org/2000/svg" xmlns:xlink="http://www.w3.org/1999/xlink" xml:space="preserve" xmlns:serif="http://www.serif.com/" style="fill-rule:evenodd;clip-rule:evenodd;stroke-linejoin:round;stroke-miterlimit:2;"><rect id="Unity" x="0" y="0" width="184.32" height="184.32" style="fill:none;"/><path id="path2" d="M135.195,138.799l-27.796,-46.71l27.796,-46.711l13.399,46.711l-13.399,46.71Zm-61.863,-4.558l-34.923,-34.605l55.591,-0l27.796,46.711l-48.464,-12.106Zm0,-84.448l48.322,-12.106l-27.796,46.711l-55.591,0l35.065,-34.605Zm70.986,-35.033l-63.147,16.378l-9.408,16.091l-18.957,-0.142l-46.326,45.002l46.326,45.002l18.957,-0.143l9.408,16.091l63.147,16.521l16.962,-61.38l-9.551,-15.949l9.551,-15.95l-16.962,-61.521Z" style="fill:#110b09;fill-rule:nonzero;"/></svg>