<?xml version="1.0" encoding="UTF-8" standalone="no"?>
<!DOCTYPE svg PUBLIC "-//W3C//DTD SVG 1.1//EN" "http://www.w3.org/Graphics/SVG/1.1/DTD/svg11.dtd">
<svg width="100%" height="100%" viewBox="0 0 500 500" version="1.1" xmlns="http://www.w3.org/2000/svg" xmlns:xlink="http://www.w3.org/1999/xlink" xml:space="preserve" xmlns:serif="http://www.serif.com/" style="fill-rule:evenodd;clip-rule:evenodd;stroke-linejoin:round;stroke-miterlimit:2;">
    <g transform="matrix(0.1752,0,0,0.1752,31,88.4692)">
        <path d="M2500,880.868L2500,963.173C2499.22,967.638 2498.23,972.021 2497.72,976.465C2493.46,1012.27 2490.7,1048.3 2484.82,1083.83C2465.6,1199.33 2424.05,1306.67 2362.33,1405.93C2268.58,1556.63 2141.85,1671.55 1982.59,1750.03C1890.68,1795.53 1791.57,1824.78 1689.67,1836.47C1667.04,1839.08 1644.42,1841.42 1621.79,1843.91L743.519,1843.91C739.095,1843.09 734.691,1841.77 730.226,1841.51C641.667,1835.93 556.461,1815.75 475.247,1780.21C298.436,1702.84 166.605,1577.45 80.309,1404.86C42.176,1328.73 17.498,1246.58 7.366,1162.04C4.877,1141.49 2.449,1120.95 0,1100.42L0,1020.56C0.844,1016.14 2.14,1011.71 2.407,1007.27C6.996,930.539 22.737,856.033 50.453,784.428C125.041,591.753 255.062,448.852 439.835,356.362C535.7,308.358 637.881,283.132 744.753,277.535C797.078,274.819 849.362,277.741 901.379,284.716C906.091,285.354 912.881,283.255 916.152,279.901C990.947,203.502 1076.11,141.444 1172.14,94.407C1265.29,48.79 1363.31,19.387 1466.5,7.617C1490.78,4.84 1515.12,2.556 1539.44,0.045L1614.32,0.045C1619.22,0.807 1624.14,1.671 1629.03,2.247C1666.13,6.568 1703.44,9.284 1740.18,15.436C1854.84,34.675 1961.56,75.827 2060.33,136.959C2211.77,230.704 2327.18,357.597 2406.03,517.35C2451.63,609.309 2480.91,708.496 2492.55,810.477C2495.23,833.955 2497.51,857.432 2500,880.868M1102.16,348.296C1103.66,350.272 1104.03,351.198 1104.67,351.506C1156.09,376.851 1205.24,406.57 1251.56,440.333C1254.49,442.453 1261.73,441.568 1265.27,439.346C1392.59,358.667 1530.62,330.827 1678.89,357.123C1824.18,382.885 1942.41,455.477 2032.74,571.424C2135.02,702.638 2174.01,851.012 2145.78,1016.1C2126.85,1126.73 2082.53,1225.99 2007.2,1309.14C1869.75,1460.72 1697.63,1523.42 1495.02,1496.88C1370.29,1480.54 1262.61,1426.73 1173.5,1336.67C1059.12,1221.14 943.992,1106.36 829.28,991.136C813.992,975.786 796.975,963.44 774.959,960.745C736.502,956.033 701.605,975.23 685,1009.78C670.185,1040.62 672.099,1075.39 704.239,1107C832.119,1232.54 958.868,1359.22 1086.61,1484.88C1108.47,1506.5 1131.91,1526.45 1156.75,1544.57C1250.06,1612.33 1355.27,1649.8 1469.2,1664.88C1558.62,1676.69 1647.35,1674.16 1735.39,1654.37C1903.33,1616.65 2042.45,1530.93 2152.02,1398.67C2242.49,1289.37 2297.2,1163.77 2316.28,1022.76C2327.33,942.353 2325.02,860.668 2309.44,781.012C2284.03,650.765 2228.93,534.222 2140.64,435.025C1972.18,245.868 1760.25,161.424 1508.05,180.272C1411.03,187.514 1319.26,216.012 1232.9,261.218C1186.3,285.43 1142.46,314.627 1102.16,348.296M1040.45,1668.79C1036.98,1665.58 1033.53,1662.34 1030.08,1659.1C977.798,1609.74 925.226,1560.68 873.56,1510.68C863.56,1501.01 854.362,1496.3 840.206,1496.63C787.881,1497.9 735.514,1498.13 683.951,1486.49C427.572,1428.5 278.704,1149.76 373.189,904.49C447.716,711.095 654.033,593.317 857.49,629.634C948.683,645.909 1028.72,684.51 1094.42,752.267C1174.55,834.984 1257.06,915.333 1338.05,997.206C1356.48,1015.85 1377.65,1024.35 1403.19,1020.7C1436.19,1015.99 1462.47,1000.27 1474.4,967.905C1486.09,936.053 1480.43,905.889 1456.32,881.465C1371.32,795.354 1288.33,707.082 1199.9,624.634C1028.37,464.654 826.111,417.082 602.407,485.107C301.523,576.527 125.432,887.226 194.177,1193.81C256.831,1473.15 501.132,1669.2 786.996,1669.45C866.811,1669.53 946.646,1669.49 1026.46,1669.45C1030.41,1669.45 1034.36,1669.1 1040.45,1668.79" style="fill-rule:nonzero;"/>
    </g>
</svg>
