<svg version="1.1" width="100" height="100" xmlns="http://www.w3.org/2000/svg">
    <defs>
        <path id="horizMaskPath" d="M 57.8 72.625 L 37.9 72.625 C 35.897967781975 72.625 34.275 71.002032218025 34.275 69.0 C 34.275 66.997967781975 35.897967781975 65.375 37.9 65.375 L 57.8 65.375 C 59.802032218025 65.375 61.425 66.997967781975 61.425 69.0 C 61.425 71.002032218025 59.802032218025 72.625 57.8 72.625" fill="black"/>
        
        <path id="rightMaskPath" d="M 74.71625222424552 48.535456135885205 L 64.61625222424553 26.935456135885204 L 67.9 25.4 L 64.70147058823531 27.105882352941194 C 64.70147058823531 27.105882352941194 64.81000351724273 27.30938159483012 64.87662156556019 27.368162225698452 C 64.72393707407817 27.233440615567265 65.22930667376157 27.525 65.3 27.525 C 65.25981708422982 27.525 65.66545507354793 27.307693934293866 65.47053209927692 27.465739589108196 C 65.50454146915992 27.438164424338197 65.60841185570797 27.265047113424792 65.60841185570797 27.265047113424792 L 62.5 25.4 L 65.77683554219207 26.950152840666615 L 37.67683554219208 86.35015284066661 C 36.82070976843275 88.1598991382219 34.659593456888686 88.9329613159514 32.84984715933339 88.07683554219207 C 31.0401008617781 87.22070976843274 30.267038684048607 85.05959345688866 31.12316445780794 83.24984715933337 L 59.22316445780793 23.849847159333372 L 59.39158814429203 23.534952886575205 C 59.39158814429203 23.534952886575205 59.94545853084008 22.6118355756618 60.90446790072308 21.8342604108918 C 61.634544926452065 21.24230606570613 63.44018291577017 20.275 65.3 20.275 C 67.1706933262384 20.275 68.97606292592182 21.316559384432733 69.67337843443978 21.931837774301506 C 70.58999648275727 22.740618405169876 71.0985294117647 23.694117647058803 71.0985294117647 23.694117647058803 L 71.18374777575448 23.8645438641148 L 81.28374777575448 45.4645438641148 C 82.1317567835907 47.27810768285367 81.34901995462407 49.43573876791824 79.5354561358852 50.28374777575448 C 77.72189231714633 51.13175678359072 75.56426123208175 50.349019954624076 74.71625222424552 48.535456135885205" fill="black"/>

        <mask id="horizMask">
            <!-- Horizontal mask -->
            <rect x="0" y="0" width="100" height="100" fill="white"/>
            <use href="#horizMaskPath"/>
        </mask>

        <mask id="rightMask">
            <!-- Horizontal mask -->
            <rect x="0" y="0" width="100" height="100" fill="white"/>
            <use href="#horizMaskPath"/>
            <use href="#rightMaskPath"/>
        </mask>
    </defs>
    <g>
        <!-- Left curve -->
        <path id="leftCurve" d="M 20.716252224245522 43.464543864114795 L 30.816252224245524 21.864543864114793 L 30.90147058823528 21.69411764705885 C 30.90147058823528 21.69411764705885 31.410003517242714 20.740618405169894 32.32662156556017 19.931837774301545 C 33.02393707407815 19.316559384432743 34.82930667376157 18.275 36.7 18.275 C 38.55981708422983 18.275 40.365455073547935 19.24230606570613 41.09553209927692 19.8342604108918 C 42.05454146915992 20.6118355756618 42.60841185570797 21.534952886575205 42.60841185570797 21.534952886575205 L 42.776835542192075 21.849847159333383 L 70.87683554219207 81.24984715933338 C 71.7329613159514 83.05959345688868 70.9598991382219 85.22070976843274 69.1501528406666 86.07683554219207 C 67.34040654311131 86.9329613159514 65.17929023156725 86.15989913822192 64.32316445780792 84.35015284066662 L 36.223164457807925 24.950152840666625 L 39.5 23.4 L 36.39158814429203 25.265047113424792 C 36.39158814429203 25.265047113424792 36.495458530840075 25.438164424338197 36.52946790072308 25.465739589108196 C 36.33454492645207 25.307693934293866 36.740182915770184 25.525 36.7 25.525 C 36.77069332623842 25.525 37.27606292592185 25.233440615567254 37.1233784344398 25.36816222569847 C 37.18999648275728 25.309381594830104 37.298529411764726 25.105882352941148 37.298529411764726 25.105882352941148 L 34.1 23.4 L 37.383747775754486 24.935456135885197 L 27.283747775754485 46.5354561358852 C 26.435738767918252 48.34901995462407 24.27810768285367 49.131756783590724 22.464543864114802 48.283747775754485 C 20.650980045375935 47.435738767918245 19.86824321640929 45.278107682853665 20.716252224245522 43.464543864114795" fill="red" mask="url(#rightMask)"/>

        <!-- Right curve -->
        <path id="rightCurve" d="M 72.71625222424552 46.535456135885205 L 62.61625222424553 24.935456135885204 L 65.9 23.4 L 62.70147058823531 25.105882352941194 C 62.70147058823531 25.105882352941194 62.81000351724274 25.30938159483012 62.87662156556018 25.368162225698452 C 62.723937074078165 25.233440615567265 63.22930667376157 25.525 63.3 25.525 C 63.259817084229816 25.525 63.66545507354793 25.307693934293866 63.47053209927692 25.465739589108196 C 63.504541469159925 25.438164424338197 63.60841185570797 25.265047113424792 63.60841185570797 25.265047113424792 L 60.5 23.4 L 63.776835542192075 24.950152840666615 L 35.67683554219208 84.35015284066661 C 34.82070976843275 86.1598991382219 32.659593456888686 86.9329613159514 30.849847159333393 86.07683554219207 C 29.0401008617781 85.22070976843274 28.267038684048607 83.05959345688866 29.12316445780794 81.24984715933337 L 57.22316445780793 21.849847159333372 L 57.39158814429203 21.534952886575205 C 57.39158814429203 21.534952886575205 57.94545853084008 20.6118355756618 58.90446790072308 19.8342604108918 C 59.634544926452065 19.24230606570613 61.44018291577017 18.275 63.3 18.275 C 65.1706933262384 18.275 66.97606292592182 19.316559384432733 67.67337843443978 19.931837774301506 C 68.58999648275727 20.740618405169876 69.0985294117647 21.694117647058803 69.0985294117647 21.694117647058803 L 69.18374777575448 21.8645438641148 L 79.28374777575448 43.4645438641148 C 80.1317567835907 45.27810768285367 79.34901995462407 47.43573876791824 77.5354561358852 48.28374777575448 C 75.72189231714633 49.13175678359072 73.56426123208175 48.349019954624076 72.71625222424552 46.535456135885205" fill="red" mask="url(#horizMask)"/>

        <!-- Horizontal curve -->
        <path id="horizCurve" d="M 59.8 70.625 L 39.9 70.625 C 37.897967781975 70.625 36.275 69.002032218025 36.275 67.0 C 36.275 64.997967781975 37.897967781975 63.375 39.9 63.375 L 59.8 63.375 C 61.802032218025 63.375 63.425 64.997967781975 63.425 67.0 C 63.425 69.002032218025 61.802032218025 70.625 59.8 70.625" fill="red"/>
    </g>
</svg>