<?xml version="1.0" encoding="UTF-8" standalone="no"?>
<!DOCTYPE svg PUBLIC "-//W3C//DTD SVG 1.1//EN" "http://www.w3.org/Graphics/SVG/1.1/DTD/svg11.dtd">
<svg width="100%" height="100%" viewBox="0 0 100 100" version="1.1" xmlns="http://www.w3.org/2000/svg" xmlns:xlink="http://www.w3.org/1999/xlink" xml:space="preserve" xmlns:serif="http://www.serif.com/" style="fill-rule:evenodd;clip-rule:evenodd;stroke-linejoin:round;stroke-miterlimit:2;">
    <g transform="matrix(1,0,0,1,-0.000321394,-2.36014)">
        <path d="M37.344,65.326C37.017,65.818 36.826,66.41 36.826,67.046C36.826,68.77 38.227,70.171 39.951,70.171L58.16,70.171L64.779,84.155C65.516,85.714 67.381,86.381 68.94,85.643C70.499,84.905 71.166,83.04 70.428,81.481L55.221,49.35L51.764,56.655L55.203,63.921L44.798,63.921L63.19,25.057L73.193,46.312C73.927,47.872 75.791,48.543 77.351,47.808C78.912,47.074 79.582,45.211 78.848,43.65L68.705,22.099C68.69,22.067 68.674,22.036 68.658,22.004C68.658,22.004 67.069,18.777 63.253,18.777C59.603,18.777 57.817,21.834 57.817,21.834C57.767,21.918 57.72,22.005 57.678,22.093L50,38.317L42.322,22.093C42.28,22.005 42.234,21.918 42.184,21.834C42.184,21.834 40.398,18.777 36.748,18.777C32.932,18.777 31.342,22.004 31.342,22.004C31.326,22.036 31.311,22.067 31.296,22.099L21.153,43.65C20.418,45.211 21.089,47.074 22.65,47.808C24.21,48.543 26.073,47.872 26.808,46.312L36.811,25.058L46.543,45.623L36.889,66.022C37.011,65.764 37.164,65.53 37.344,65.326ZM35.551,68.849L29.573,81.481C28.835,83.04 29.502,84.905 31.061,85.643C32.62,86.381 34.484,85.714 35.222,84.155L40.354,73.311L38.376,73.311C37.305,73.311 36.308,72.763 35.735,71.858C35.162,70.953 35.093,69.817 35.551,68.849ZM36.885,24.901L36.892,24.906C36.899,24.887 36.902,24.87 36.903,24.862L36.885,24.901Z" style="fill:rgb(239,0,0);"/>
    </g>
</svg>
