<?xml version="1.0" encoding="UTF-8" standalone="no"?><!DOCTYPE svg PUBLIC "-//W3C//DTD SVG 1.1//EN" "http://www.w3.org/Graphics/SVG/1.1/DTD/svg11.dtd"><svg width="100%" height="100%" viewBox="0 0 417 417" version="1.1" xmlns="http://www.w3.org/2000/svg" xmlns:xlink="http://www.w3.org/1999/xlink" xml:space="preserve" xmlns:serif="http://www.serif.com/" style="fill-rule:evenodd;clip-rule:evenodd;stroke-linejoin:round;stroke-miterlimit:2;"><g><path d="M185.562,205.661l-31.599,67.813c-1.943,4.194 -1.613,9.088 0.875,12.983c2.488,3.894 6.791,6.251 11.412,6.251l82.917,0c1.566,0 3.071,-0.266 4.452,-0.811c-1.28,3.767 -4.194,6.775 -7.9,8.189c13.955,29.777 23.673,50.634 23.673,50.634c3.157,6.774 11.22,9.711 17.994,6.554c6.775,-3.156 9.712,-11.219 6.555,-17.994c0,0 -32.859,-70.511 -64.447,-137.429l-6.755,14.34l-8.172,17.543l14.973,31.891l-42.075,0c18.911,-40.69 62.378,-133.926 75.889,-160.423c9.611,17.929 40.958,87.843 40.958,87.843c3.061,6.818 11.081,9.87 17.9,6.809c6.818,-3.06 9.869,-11.08 6.809,-17.899c0,0 -33.602,-74.795 -42.593,-91.019c-4.3,-7.758 -15.338,-13.218 -23.095,-13.218c-7.854,0 -19.158,5.587 -23.28,13.566c-5.721,11.072 -18.105,36.976 -31.696,65.895c-13.859,-29.337 -25.685,-53.956 -31.698,-65.806c-4.131,-8.143 -15.981,-13.665 -23.742,-13.665c-7.884,0 -18.478,5.588 -22.7,13.268c-8.916,16.217 -42.567,90.969 -42.567,90.969c-3.066,6.817 -0.021,14.839 6.795,17.905c6.817,3.066 14.839,0.021 17.905,-6.795c0,-0 31.369,-69.809 40.957,-87.834c7.605,15.116 22.962,47.268 40.046,83.504l-7.997,17.015l0.206,-0.079Zm-40.548,85.933l-22.287,47.683c-6.016,13.03 10.668,25.449 21.354,15.771c14.864,-13.461 18.232,-35.647 26.484,-54.016l-12.648,-0c-4.64,-0 -8.957,-2.376 -11.44,-6.295c-0.629,-0.993 -1.118,-2.05 -1.463,-3.143Z" style="fill:#ff0017;"/></g></svg>