<?xml version="1.0" encoding="UTF-8" standalone="no"?><!DOCTYPE svg PUBLIC "-//W3C//DTD SVG 1.1//EN" "http://www.w3.org/Graphics/SVG/1.1/DTD/svg11.dtd"><svg width="100%" height="100%" viewBox="0 0 2000 2000" version="1.1" xmlns="http://www.w3.org/2000/svg" xmlns:xlink="http://www.w3.org/1999/xlink" xml:space="preserve" xmlns:serif="http://www.serif.com/" style="fill-rule:evenodd;clip-rule:evenodd;stroke-linejoin:round;stroke-miterlimit:2;"><rect id="Artboard2" x="0" y="0" width="2000" height="2000" style="fill:none;"/><g><path d="M770.987,1181.03l0,-313.943l229.013,-132.221l229.013,132.221l0,266.8l-229.013,141.035l-432.735,-177.414l-3.48,-350.049l436.215,-251.849l436.215,251.849l0,503.697l-436.215,251.849l-654.322,-261.308l0,-620.163l654.322,-377.773l654.322,377.773l0,755.547l-654.322,379.158l0.421,-253.477" style="fill:#ebebeb;fill-opacity:0;"/><path d="M1005.27,183.548l5.228,0.688l5.148,1.141l5.029,1.586l4.871,2.018l4.678,2.435l654.322,377.772l4.447,2.834l4.184,3.21l3.887,3.562l3.563,3.888l3.21,4.183l2.833,4.447l2.435,4.678l2.018,4.871l1.585,5.029l1.142,5.148l0.688,5.228l0.23,5.268l0,755.547l-0.23,5.26l-0.686,5.22l-1.138,5.14l-1.58,5.023l-2.012,4.865l-2.428,4.672l-2.825,4.443l-3.201,4.18l-3.553,3.886l-3.877,3.562l-4.173,3.211l-4.436,2.835l-654.322,379.158l-4.681,2.446l-4.877,2.028l-5.034,1.594l-5.155,1.149l-5.235,0.694l-5.276,0.235l-5.277,-0.226l-5.236,-0.687l-5.157,-1.141l-5.037,-1.586l-4.879,-2.02l-4.685,-2.439l-4.454,-2.838l-4.189,-3.216l-3.892,-3.569l-3.566,-3.896l-3.213,-4.192l-2.834,-4.456l-2.434,-4.687l-2.016,-4.881l-1.582,-5.039l-1.136,-5.157l-0.682,-5.237l-0.222,-5.277l0.353,-212.045l-616.648,-246.263l-4.688,-2.108l-4.492,-2.498l-4.263,-2.871l-4.004,-3.222l-3.716,-3.551l-3.401,-3.854l-3.061,-4.129l-2.699,-4.374l-2.318,-4.588l-1.92,-4.767l-1.507,-4.914l-1.085,-5.024l-0.654,-5.098l-0.219,-5.135l0,-620.163l0.23,-5.268l0.689,-5.228l1.141,-5.148l1.586,-5.029l2.017,-4.871l2.435,-4.678l2.833,-4.447l3.211,-4.183l3.562,-3.888l3.888,-3.562l4.183,-3.21l4.447,-2.834l654.322,-377.772l4.677,-2.435l4.872,-2.018l5.029,-1.586l5.148,-1.141l5.228,-0.688l5.268,-0.23l5.268,0.23Zm-599.146,472.883l0,544.319l589.057,235.244l380.592,-219.735l0,-433.903l-375.771,-216.952l-375.423,216.751l2.73,274.642l83.236,34.126l0,-223.836l0.23,-5.268l0.689,-5.228l1.141,-5.148l1.586,-5.029l2.018,-4.872l2.434,-4.677l2.834,-4.447l3.21,-4.184l3.562,-3.887l3.888,-3.563l4.183,-3.21l4.447,-2.833l229.013,-132.22l4.677,-2.435l4.872,-2.018l5.029,-1.586l5.148,-1.141l5.228,-0.688l5.268,-0.23l5.268,0.23l5.228,0.688l5.148,1.141l5.029,1.586l4.871,2.018l4.678,2.435l229.012,132.22l4.448,2.833l4.183,3.21l3.888,3.563l3.562,3.887l3.21,4.184l2.833,4.447l2.435,4.677l2.018,4.872l1.586,5.029l1.141,5.148l0.688,5.228l0.23,5.268l0,266.8l-0.217,5.125l-0.652,5.089l-1.081,5.015l-1.502,4.905l-1.913,4.761l-2.309,4.581l-2.69,4.368l-3.05,4.125l-3.389,3.851l-3.704,3.55l-3.991,3.224l-4.25,2.873l-229.013,141.035l-4.513,2.52l-4.713,2.125l-4.877,1.715l-5.005,1.291l-5.098,0.86l-5.152,0.42l-5.17,-0.021l-5.148,-0.463l-5.091,-0.901l-4.994,-1.333l-4.863,-1.754l-432.735,-177.414l-4.941,-2.291l-4.715,-2.727l-4.45,-3.139l-4.149,-3.528l-3.816,-3.887l-3.449,-4.214l-3.057,-4.508l-2.638,-4.765l-2.199,-4.983l-1.741,-5.16l-1.27,-5.296l-0.787,-5.389l-0.3,-5.438l-3.48,-350.049l0.182,-5.32l0.649,-5.284l1.111,-5.205l1.565,-5.088l2.006,-4.931l2.433,-4.734l2.839,-4.503l3.225,-4.235l3.585,-3.935l3.917,-3.604l4.219,-3.246l4.488,-2.862l436.215,-251.849l4.677,-2.435l4.872,-2.018l5.029,-1.585l5.148,-1.141l5.228,-0.689l5.268,-0.23l5.268,0.23l5.228,0.689l5.148,1.141l5.029,1.585l4.871,2.018l4.678,2.435l436.215,251.849l4.447,2.833l4.183,3.21l3.888,3.563l3.562,3.887l3.21,4.184l2.833,4.447l2.435,4.677l2.018,4.872l1.586,5.029l1.141,5.148l0.688,5.228l0.23,5.268l0,503.697l-0.23,5.268l-0.688,5.228l-1.141,5.148l-1.586,5.029l-2.018,4.872l-2.435,4.677l-2.833,4.447l-3.21,4.184l-3.562,3.887l-3.888,3.563l-4.183,3.21l-4.447,2.833l-405.63,234.19l-0.189,113.562l533.26,-309.007l0,-685.816l-593.878,-342.875l-593.878,342.875Zm425.309,245.553l0,238.501l163.052,66.848l174.086,-107.209l0,-198.14l-168.569,-97.323l-168.569,97.323Z"/><path d="M1000,733.945l230.411,133.027l0,266.056l-230.411,133.027l-230.411,-133.027l0,-266.056l230.411,-133.027Z"/></g></svg>