<?xml version="1.0" encoding="UTF-8" standalone="no"?>
<!DOCTYPE svg PUBLIC "-//W3C//DTD SVG 1.1//EN" "http://www.w3.org/Graphics/SVG/1.1/DTD/svg11.dtd">
<svg width="100%" height="100%" viewBox="0 0 512 512" version="1.1" xmlns="http://www.w3.org/2000/svg" xmlns:xlink="http://www.w3.org/1999/xlink" xml:space="preserve" xmlns:serif="http://www.serif.com/" style="fill-rule:evenodd;clip-rule:evenodd;stroke-linejoin:round;stroke-miterlimit:2;">
    <rect id="C" x="0" y="0" width="512" height="512" style="fill:none;"/>
    <g id="C1" serif:id="C">
        <g>
            <path d="M231,14.434C246.47,5.502 265.53,5.502 281,14.434C323.662,39.065 410.04,88.935 452.703,113.566C468.173,122.498 477.703,139.004 477.703,156.868L477.703,355.132C477.703,372.996 468.173,389.502 452.703,398.434C410.04,423.065 323.662,472.935 281,497.566C265.53,506.498 246.47,506.498 231,497.566C188.338,472.935 101.96,423.065 59.297,398.434C43.827,389.502 34.297,372.996 34.297,355.132L34.297,156.868C34.297,139.004 43.827,122.498 59.297,113.566C101.96,88.935 188.338,39.065 231,14.434ZM354.649,294.33C353.89,310.823 349.441,325.39 341.303,338.031C333.165,350.672 321.744,360.465 307.042,367.41C292.339,374.354 275.548,377.826 256.667,377.826C225.526,377.826 201.003,367.681 183.1,347.39C165.196,327.099 156.244,298.453 156.244,261.452L156.244,249.734C156.244,226.513 160.286,206.195 168.37,188.78C176.454,171.365 188.091,157.91 203.282,148.415C218.473,138.921 236.051,134.174 256.016,134.174C284.771,134.174 307.883,141.742 325.352,156.879C342.822,172.016 352.75,192.876 355.137,219.46L298.171,219.46C297.737,205.029 294.102,194.666 287.266,188.373C280.43,182.08 270.014,178.933 256.016,178.933C241.802,178.933 231.385,184.25 224.766,194.883C218.147,205.517 214.675,222.498 214.35,245.827L214.35,262.592C214.35,287.874 217.523,305.94 223.871,316.791C230.219,327.642 241.151,333.067 256.667,333.067C269.797,333.067 279.834,329.975 286.778,323.79C293.722,317.605 297.412,307.785 297.846,294.33L354.649,294.33Z"/>
        </g>
    </g>
</svg>
