<?xml version="1.0" encoding="UTF-8" standalone="no"?>
<!DOCTYPE svg PUBLIC "-//W3C//DTD SVG 1.1//EN" "http://www.w3.org/Graphics/SVG/1.1/DTD/svg11.dtd">
<svg width="100%" height="100%" viewBox="0 0 512 512" version="1.1" xmlns="http://www.w3.org/2000/svg" xmlns:xlink="http://www.w3.org/1999/xlink" xml:space="preserve" xmlns:serif="http://www.serif.com/" style="fill-rule:evenodd;clip-rule:evenodd;stroke-linejoin:round;stroke-miterlimit:2;">
    <g transform="matrix(1,0,0,1,-1190,0)">
        <g id="C--" serif:id="C++" transform="matrix(1,0,0,1,1190,0)">
            <rect x="0" y="0" width="512" height="512" style="fill:none;"/>
            <g>
                <path d="M231,14.434C246.47,5.502 265.53,5.502 281,14.434C323.662,39.065 410.04,88.935 452.703,113.566C468.173,122.498 477.703,139.004 477.703,156.868L477.703,355.132C477.703,372.996 468.173,389.502 452.703,398.434C410.04,423.065 323.662,472.935 281,497.566C265.53,506.498 246.47,506.498 231,497.566C188.338,472.935 101.96,423.065 59.297,398.434C43.827,389.502 34.297,372.996 34.297,355.132L34.297,156.868C34.297,139.004 43.827,122.498 59.297,113.566C101.96,88.935 188.338,39.065 231,14.434ZM201.506,282.956C200.984,294.295 197.925,304.31 192.33,313.001C186.735,321.691 178.884,328.424 168.776,333.198C158.668,337.973 147.123,340.36 134.143,340.36C112.734,340.36 95.874,333.385 83.566,319.435C71.257,305.485 65.102,285.791 65.102,260.353L65.102,252.296C65.102,236.332 67.881,222.364 73.439,210.39C78.996,198.417 86.997,189.167 97.441,182.64C107.885,176.112 119.97,172.849 133.696,172.849C153.464,172.849 169.354,178.052 181.364,188.458C193.375,198.865 200.2,213.207 201.841,231.483L162.677,231.483C162.379,221.562 159.88,214.437 155.18,210.111C150.48,205.784 143.319,203.621 133.696,203.621C123.923,203.621 116.762,207.276 112.211,214.587C107.661,221.897 105.274,233.572 105.05,249.611L105.05,261.136C105.05,278.518 107.232,290.938 111.596,298.398C115.96,305.858 123.476,309.588 134.143,309.588C143.17,309.588 150.07,307.462 154.844,303.21C159.619,298.958 162.155,292.206 162.453,282.956L201.506,282.956ZM286.324,245.694L324.481,245.694L324.481,278.033L286.324,278.033L286.324,321.785L251.076,321.785L251.076,278.033L212.807,278.033L212.807,245.694L251.076,245.694L251.076,203.173L286.324,203.173L286.324,245.694ZM408.74,245.694L446.898,245.694L446.898,278.033L408.74,278.033L408.74,321.785L373.493,321.785L373.493,278.033L335.224,278.033L335.224,245.694L373.493,245.694L373.493,203.173L408.74,203.173L408.74,245.694Z"/>
            </g>
        </g>
    </g>
</svg>
