<?xml version="1.0" encoding="UTF-8" standalone="no"?>
<!DOCTYPE svg PUBLIC "-//W3C//DTD SVG 1.1//EN" "http://www.w3.org/Graphics/SVG/1.1/DTD/svg11.dtd">
<svg width="100%" height="100%" viewBox="0 0 512 512" version="1.1" xmlns="http://www.w3.org/2000/svg" xmlns:xlink="http://www.w3.org/1999/xlink" xml:space="preserve" xmlns:serif="http://www.serif.com/" style="fill-rule:evenodd;clip-rule:evenodd;stroke-linejoin:round;stroke-miterlimit:2;">
    <g transform="matrix(1,0,0,1,-595,0)">
        <g id="C-" serif:id="C#" transform="matrix(1,0,0,1,595,0)">
            <rect x="0" y="0" width="512" height="512" style="fill:none;"/>
            <g>
                <path d="M231,14.434C246.47,5.502 265.53,5.502 281,14.434C323.662,39.065 410.04,88.935 452.703,113.566C468.173,122.498 477.703,139.004 477.703,156.868L477.703,355.132C477.703,372.996 468.173,389.502 452.703,398.434C410.04,423.065 323.662,472.935 281,497.566C265.53,506.498 246.47,506.498 231,497.566C188.338,472.935 101.96,423.065 59.297,398.434C43.827,389.502 34.297,372.996 34.297,355.132L34.297,156.868C34.297,139.004 43.827,122.498 59.297,113.566C101.96,88.935 188.338,39.065 231,14.434ZM257.211,289.539C256.546,303.97 252.653,316.716 245.532,327.777C238.412,338.838 228.419,347.407 215.554,353.483C202.689,359.56 187.997,362.598 171.476,362.598C144.228,362.598 122.77,353.721 107.105,335.966C91.439,318.212 83.606,293.147 83.606,260.771L83.606,250.517C83.606,230.199 87.143,212.421 94.216,197.182C101.289,181.944 111.472,170.171 124.764,161.863C138.056,153.556 153.437,149.402 170.907,149.402C196.067,149.402 216.29,156.024 231.576,169.269C246.862,182.514 255.549,200.767 257.638,224.028L207.792,224.028C207.413,211.4 204.232,202.333 198.251,196.826C192.269,191.32 183.155,188.566 170.907,188.566C158.469,188.566 149.355,193.219 143.563,202.523C137.772,211.828 134.733,226.686 134.448,247.099L134.448,261.768C134.448,283.89 137.226,299.698 142.78,309.192C148.334,318.686 157.9,323.434 171.476,323.434C182.965,323.434 191.747,320.728 197.823,315.316C203.9,309.904 207.128,301.312 207.508,289.539L257.211,289.539ZM352.344,301.359L329.415,301.359L319.873,359.75L291.533,359.75L301.074,301.359L269.458,301.359L269.458,275.297L305.347,275.297L311.613,237.7L280.139,237.7L280.139,211.638L315.886,211.638L325.712,152.393L353.911,152.393L344.226,211.638L367.155,211.638L376.982,152.393L405.323,152.393L395.496,211.638L428.394,211.638L428.394,237.7L391.223,237.7L384.957,275.297L417.57,275.297L417.57,301.359L380.685,301.359L371.143,359.75L342.802,359.75L352.344,301.359ZM333.688,275.297L356.616,275.297L362.883,237.7L339.954,237.7L333.688,275.297Z"/>
            </g>
        </g>
    </g>
</svg>
