<?xml version="1.0" encoding="UTF-8" standalone="no"?>
<!DOCTYPE svg PUBLIC "-//W3C//DTD SVG 1.1//EN" "http://www.w3.org/Graphics/SVG/1.1/DTD/svg11.dtd">
<svg width="100%" height="100%" viewBox="0 0 500 500" version="1.1" xmlns="http://www.w3.org/2000/svg" xmlns:xlink="http://www.w3.org/1999/xlink" xml:space="preserve" xmlns:serif="http://www.serif.com/" style="fill-rule:evenodd;clip-rule:evenodd;stroke-linejoin:round;stroke-miterlimit:2;">
    <g transform="matrix(0.0474927,0,0,0.0474927,89.765,27.403)">
        <path d="M3791.84,-91C3791.84,570.982 3791.81,1232.96 3791.84,1894.94C3791.86,2335.78 4084.71,2741.22 4498.93,2889.35C4610.66,2929.31 4728.08,2948.97 4846.64,2949.74L6820.3,2949.74L6820.3,8912.3C6820.3,9269.5 6522.7,9567.1 6165.5,9567.1L480.8,9567.1C123.6,9567.1 -174,9269.5 -174,8912.3L-174,563.8C-174,206.6 123.6,-91 480.8,-91L4201.1,-91L3791.84,-91ZM1582,7825.9L4201.1,7825.9L4201.1,7379.5L1582,7379.5L1582,7825.9ZM1582,6947.9L5079.1,6947.9L5079.1,6501.5L1582,6501.5L1582,6947.9ZM1582,6069.9L5079.1,6069.9L5079.1,5623.5L1582,5623.5L1582,6069.9ZM1582,4745.4L1582,5191.8L5079.1,5191.8L5079.1,4745.4L1582,4745.4ZM6820.3,2543L6820.3,2703.34C6820.09,2662.19 6819.93,2621.04 6819.83,2579.89L6819.85,2542.67L6820.3,2543ZM4240.73,-35.078L5287.5,1441.8L6764.04,2502.58L6810.94,2549.74L4846.64,2549.74C4489.44,2549.74 4191.84,2252.14 4191.84,1894.94L4191.84,-84.255L4240.73,-35.078Z"/>
        <g transform="matrix(1,0,0,1,26.4375,-2.95454)">
            <path d="M4165.4,-81.3L4165.4,1897.9C4165.4,2255.1 4463,2552.7 4820.2,2552.7L6784.5,2552.7L4165.4,-81.3Z" style="fill-rule:nonzero;"/>
        </g>
    </g>
</svg>
