<?xml version="1.0" encoding="UTF-8" standalone="no"?>
<!DOCTYPE svg PUBLIC "-//W3C//DTD SVG 1.1//EN" "http://www.w3.org/Graphics/SVG/1.1/DTD/svg11.dtd">
<svg width="100%" height="100%" viewBox="0 0 630 630" version="1.1" xmlns="http://www.w3.org/2000/svg" xmlns:xlink="http://www.w3.org/1999/xlink" xml:space="preserve" xmlns:serif="http://www.serif.com/" style="fill-rule:evenodd;clip-rule:evenodd;stroke-linejoin:round;stroke-miterlimit:2;">
    <g id="logo">
        <path d="M630,138.431C630,62.027 567.97,-0.003 491.566,-0.003L138.434,-0.003C62.03,-0.003 0,62.027 0,138.431L0,491.568C0,567.972 62.03,630.003 138.434,630.003L491.566,630.003C567.97,630.003 630,567.972 630,491.568L630,138.431ZM375,520.13L423.206,492.219C435.896,512.942 452.389,528.166 481.567,528.166C506.099,528.166 521.741,515.901 521.741,498.985C521.741,478.686 505.672,471.496 478.606,459.659L463.809,453.311C421.094,435.13 392.759,412.294 392.759,364.084C392.759,319.68 426.59,285.846 479.454,285.846C517.091,285.846 544.156,298.957 563.608,333.212L517.511,362.814C507.361,344.631 496.369,337.442 479.454,337.442C462.115,337.442 451.119,348.437 451.119,362.814C451.119,380.576 462.115,387.766 487.486,398.762L502.286,405.105C552.611,426.674 580.946,448.662 580.946,498.139C580.946,551.426 539.08,580.604 482.836,580.604C427.86,580.604 392.336,554.386 375,520.13ZM165.652,526.473L213.862,497.296C223.164,513.787 231.625,527.74 251.92,527.74C271.374,527.74 283.639,520.13 283.639,490.53L283.639,289.23L342.842,289.23L342.842,491.367C342.842,552.687 306.899,580.599 254.457,580.599C207.096,580.599 179.605,556.07 165.652,526.473ZM165.652,526.473L165.65,526.474L165.65,526.469L165.652,526.473Z"/>
    </g>
</svg>
