<?xml version="1.0" encoding="UTF-8" standalone="no"?>
<!DOCTYPE svg PUBLIC "-//W3C//DTD SVG 1.1//EN" "http://www.w3.org/Graphics/SVG/1.1/DTD/svg11.dtd">
<svg width="100%" height="100%" viewBox="0 0 107 107" version="1.1" xmlns="http://www.w3.org/2000/svg" xmlns:xlink="http://www.w3.org/1999/xlink" xml:space="preserve" xmlns:serif="http://www.serif.com/" style="fill-rule:evenodd;clip-rule:evenodd;stroke-linejoin:round;stroke-miterlimit:2;">
    <g>
        <path d="M106.066,23.304C106.066,10.44 95.623,-0.003 82.759,-0.003L23.307,-0.003C10.443,-0.003 0,10.44 0,23.304L0,82.757C0,95.621 10.443,106.064 23.307,106.064L82.759,106.064C95.623,106.064 106.066,95.621 106.066,82.757L106.066,23.304ZM84.038,65.462C84.155,65.063 84.276,64.666 84.379,64.257C88.781,46.718 78.037,25.982 59.856,15.064C67.824,25.865 71.346,38.947 68.216,50.388C67.937,51.408 67.601,52.388 67.23,53.34C66.827,53.076 66.32,52.775 65.639,52.4C65.639,52.4 47.553,41.233 27.951,21.482C27.437,20.963 38.404,37.157 50.85,50.306C44.987,47.014 28.646,35.124 18.3,25.655C19.571,27.775 21.083,29.816 22.744,31.781C31.384,42.737 42.65,56.256 56.148,66.636C46.664,72.44 33.263,72.891 19.921,66.642C16.621,65.095 13.518,63.229 10.647,61.109C16.295,70.143 24.994,77.937 35.581,82.488C48.206,87.914 60.761,87.546 70.112,82.577L70.105,82.588C70.137,82.568 70.172,82.547 70.205,82.527C70.625,82.302 71.041,82.07 71.447,81.827C75.964,79.508 84.778,77.22 89.514,86.436C90.68,88.704 93.159,76.684 84.046,65.471C84.043,65.467 84.041,65.465 84.038,65.462Z"/>
    </g>
</svg>
